<?xml version="1.0" encoding="UTF-8"?>
<!DOCTYPE svg PUBLIC "-//W3C//DTD SVG 1.1//EN" "http://www.w3.org/Graphics/SVG/1.1/DTD/svg11.dtd">
<svg xmlns="http://www.w3.org/2000/svg" version="1.1" width="878px" height="284px" style="shape-rendering:geometricPrecision; text-rendering:geometricPrecision; image-rendering:optimizeQuality; fill-rule:evenodd; clip-rule:evenodd" xmlns:xlink="http://www.w3.org/1999/xlink">
<g><path style="opacity:1" fill="#bfb831" d="M 145.5,9.5 C 145.5,9.16667 145.5,8.83333 145.5,8.5C 151.5,8.5 157.5,8.5 163.5,8.5C 163.719,9.67504 163.386,10.675 162.5,11.5C 161.261,11.9424 160.261,12.6091 159.5,13.5C 155.214,16.7578 151.881,20.7578 149.5,25.5C 149.343,24.1266 149.51,22.7932 150,21.5C 153.009,17.6606 156.176,13.9939 159.5,10.5C 154.88,9.50671 150.214,9.17338 145.5,9.5 Z"/></g>
<g><path style="opacity:1" fill="#c4652a" d="M 163.5,8.5 C 167.458,8.25108 171.124,8.91774 174.5,10.5C 169.357,10.8836 164.357,11.8836 159.5,13.5C 160.261,12.6091 161.261,11.9424 162.5,11.5C 163.386,10.675 163.719,9.67504 163.5,8.5 Z"/></g>
<g><path style="opacity:1" fill="#a8d62e" d="M 145.5,9.5 C 150.214,9.17338 154.88,9.50671 159.5,10.5C 156.176,13.9939 153.009,17.6606 150,21.5C 149.51,22.7932 149.343,24.1266 149.5,25.5C 147.926,27.1016 147.259,29.1016 147.5,31.5C 146.505,42.6544 146.172,53.9877 146.5,65.5C 146.5,71.8333 146.5,78.1667 146.5,84.5C 146.815,88.3714 146.482,92.0381 145.5,95.5C 145.5,66.8333 145.5,38.1667 145.5,9.5 Z"/></g>
<g><path style="opacity:0.008" fill="#000000" d="M 61.5,12.5 C 62.8333,13.1667 62.8333,13.1667 61.5,12.5 Z"/></g>
<g><path style="opacity:1" fill="#e80b2b" d="M 118.5,33.5 C 118.5,34.1667 118.5,34.8333 118.5,35.5C 116.343,38.6471 114.009,41.6471 111.5,44.5C 110.503,44.5299 109.836,44.0299 109.5,43C 112.99,39.1854 114.656,34.6854 114.5,29.5C 115.683,25.8246 115.683,21.9913 114.5,18C 114.439,16.2894 115.106,14.956 116.5,14C 122.949,11.5687 129.615,10.9021 136.5,12C 137.337,13.0113 137.67,14.1779 137.5,15.5C 131.468,15.8361 125.468,16.5028 119.5,17.5C 118.549,22.7698 118.215,28.1032 118.5,33.5 Z"/></g>
<g><path style="opacity:0.973" fill="#c02849" d="M 139.5,9.5 C 139.5,9.83333 139.5,10.1667 139.5,10.5C 139.756,12.7925 139.423,14.9592 138.5,17C 132.833,17.3333 127.167,17.6667 121.5,18C 121,18.5 120.5,19 120,19.5C 119.501,24.1548 119.334,28.8215 119.5,33.5C 119.167,33.5 118.833,33.5 118.5,33.5C 118.215,28.1032 118.549,22.7698 119.5,17.5C 125.468,16.5028 131.468,15.8361 137.5,15.5C 137.67,14.1779 137.337,13.0113 136.5,12C 129.615,10.9021 122.949,11.5687 116.5,14C 115.106,14.956 114.439,16.2894 114.5,18C 115.683,21.9913 115.683,25.8246 114.5,29.5C 114.579,25.0505 113.912,20.7171 112.5,16.5C 112.57,15.2284 112.903,14.0617 113.5,13C 122.01,10.7863 130.677,9.61962 139.5,9.5 Z"/></g>
<g><path style="opacity:0.004" fill="#000000" d="M 491.5,15.5 C 492.833,16.1667 492.833,16.1667 491.5,15.5 Z"/></g>
<g><path style="opacity:1" fill="#5090fa" d="M 141.5,11.5 C 142.498,35.3275 142.831,59.3275 142.5,83.5C 135.001,83.3328 127.501,83.3328 120,83.5C 118.48,84.697 117.313,86.197 116.5,88C 114.833,88.3333 113.167,88.6667 111.5,89C 111.833,89.3333 112.167,89.6667 112.5,90C 109.119,91.2329 106.452,93.3996 104.5,96.5C 103.914,96.2907 103.414,95.9574 103,95.5C 101.566,98.0472 99.8998,100.381 98,102.5C 97.3311,99.9722 96.4978,99.9722 95.5,102.5C 95.7093,103.086 96.0426,103.586 96.5,104C 94.6711,104.273 93.1711,105.107 92,106.5C 91.6667,109.167 91.3333,111.833 91,114.5C 89.0384,117.655 87.3718,120.988 86,124.5C 85.5034,126.81 85.3367,129.143 85.5,131.5C 85.5,131.833 85.5,132.167 85.5,132.5C 84.9315,137.945 83.9315,143.445 82.5,149C 83.6667,153.5 84.8333,158 86,162.5C 88.7859,166.419 91.2859,170.419 93.5,174.5C 98.1737,179.171 103.174,183.504 108.5,187.5C 111.723,190.247 115.389,192.247 119.5,193.5C 125.805,197.45 132.638,198.784 140,197.5C 140.495,195.527 140.662,193.527 140.5,191.5C 139.167,191.5 137.833,191.5 136.5,191.5C 136.167,191.5 135.833,191.5 135.5,191.5C 133.189,189.932 130.522,189.098 127.5,189C 123.927,186.952 120.594,184.619 117.5,182C 114.883,181.178 112.216,180.678 109.5,180.5C 107.115,178.116 105.115,175.45 103.5,172.5C 102.121,168.075 99.9542,164.075 97,160.5C 94.9263,149.913 94.2596,139.246 95,128.5C 97.4572,123.163 99.9572,117.829 102.5,112.5C 105.631,109.871 108.631,107.038 111.5,104C 115.739,102.098 119.739,99.7646 123.5,97C 125.436,96.187 127.436,95.687 129.5,95.5C 134.044,95.3403 138.378,95.3403 142.5,95.5C 143.163,154.509 142.496,213.176 140.5,271.5C 140.5,270.167 140.5,268.833 140.5,267.5C 135.548,266.508 130.548,265.842 125.5,265.5C 124.791,264.596 123.791,264.263 122.5,264.5C 122.666,260.486 122.499,256.486 122,252.5C 121.722,251.584 121.222,250.918 120.5,250.5C 119.463,249.07 118.796,247.403 118.5,245.5C 116.686,240.015 113.02,236.682 107.5,235.5C 105.901,230.651 102.401,228.651 97,229.5C 93.7649,229.582 90.5982,230.082 87.5,231C 85.6803,231.2 84.347,232.034 83.5,233.5C 79.2934,235.435 75.6267,238.102 72.5,241.5C 69.2153,241.79 66.2153,241.123 63.5,239.5C 58.5,233.833 53.1667,228.5 47.5,223.5C 47.2671,221.938 46.6005,220.605 45.5,219.5C 45.2978,217.011 45.7978,214.677 47,212.5C 56.086,205.414 59.4194,196.081 57,184.5C 56.6174,183.944 56.1174,183.611 55.5,183.5C 55.3404,181.847 54.6737,180.514 53.5,179.5C 53.634,177.708 53.3007,176.042 52.5,174.5C 51.5302,171.339 49.8635,168.506 47.5,166C 39.8683,161.907 31.7016,159.74 23,159.5C 20.837,148.784 21.0036,138.118 23.5,127.5C 24.1924,128.025 24.6924,128.692 25,129.5C 26.0113,128.663 27.1779,128.33 28.5,128.5C 28.5,127.5 28.5,126.5 28.5,125.5C 30.1992,125.66 31.8659,125.494 33.5,125C 33.1667,124.667 32.8333,124.333 32.5,124C 36.7003,122.796 40.7003,121.129 44.5,119C 45.7814,116.573 46.7814,114.073 47.5,111.5C 48.8333,109.167 50.1667,106.833 51.5,104.5C 51.5,103.833 51.5,103.167 51.5,102.5C 52.6935,102.03 53.3601,101.03 53.5,99.5C 55.2015,90.7923 53.8682,82.6256 49.5,75C 47.5952,73.5787 45.5952,72.412 43.5,71.5C 43.1667,71.5 42.8333,71.5 42.5,71.5C 41.7736,67.7396 43.1069,65.073 46.5,63.5C 52.8146,58.1833 58.4813,52.1833 63.5,45.5C 65.1561,44.8535 66.8228,44.1869 68.5,43.5C 71.1395,45.4728 73.4728,47.8061 75.5,50.5C 76.325,51.3857 77.325,51.719 78.5,51.5C 80.487,52.1642 82.1537,53.3308 83.5,55C 90.9677,55.8614 98.301,55.1947 105.5,53C 107.093,52.0513 108.426,50.8846 109.5,49.5C 111.142,48.197 112.809,46.8637 114.5,45.5C 118.335,42.4871 120.001,38.4871 119.5,33.5C 121.436,29.2853 122.103,24.6186 121.5,19.5C 127.509,19.6662 133.509,19.4995 139.5,19C 141.278,16.8646 141.945,14.3646 141.5,11.5 Z"/></g>
<g><path style="opacity:1" fill="#a6dd05" d="M 178.5,19.5 C 180.167,20.8333 181.833,22.1667 183.5,23.5C 184.795,27.4438 186.128,31.4438 187.5,35.5C 187.333,36.5 187.167,37.5 187,38.5C 181.482,41.0656 180.315,44.8989 183.5,50C 184.833,50.6667 186.167,50.6667 187.5,50C 190.194,47.0815 193.194,44.5815 196.5,42.5C 199.599,42.9077 201.933,41.741 203.5,39C 208.533,38.1711 213.533,38.3377 218.5,39.5C 220.919,42.0948 223.919,43.7614 227.5,44.5C 228.699,47.9033 230.199,51.2366 232,54.5C 232.499,60.1569 232.666,65.8236 232.5,71.5C 232.167,72.8333 231.833,74.1667 231.5,75.5C 230.218,77.4228 228.885,79.4228 227.5,81.5C 227.433,79.5756 227.1,77.5756 226.5,75.5C 225.571,76.6888 225.238,78.0222 225.5,79.5C 224.167,79.5 222.833,79.5 221.5,79.5C 221.286,81.1439 221.62,82.6439 222.5,84C 220.963,85.1096 220.297,86.6096 220.5,88.5C 217.436,88.9275 214.436,89.5942 211.5,90.5C 210.841,84.8896 209.174,79.5563 206.5,74.5C 206.669,65.9175 207.003,57.2509 207.5,48.5C 204.615,48.1936 201.948,48.5269 199.5,49.5C 197.642,56.4571 194.975,63.1238 191.5,69.5C 188.146,71.8629 184.812,74.1962 181.5,76.5C 177.555,77.4909 173.555,77.8242 169.5,77.5C 166.769,73.7657 163.436,70.7657 159.5,68.5C 158.058,67.1805 157.392,65.5138 157.5,63.5C 156.208,51.1475 156.208,38.8141 157.5,26.5C 159.939,24.4659 162.272,22.2993 164.5,20C 169.126,18.2441 173.793,18.0774 178.5,19.5 Z"/></g>
<g><path style="opacity:0.004" fill="#fe0000" d="M 663.5,23.5 C 664.833,24.1667 664.833,24.1667 663.5,23.5 Z"/></g>
<g><path style="opacity:0.967" fill="#fefefe" d="M 396.5,261.5 C 389.167,261.5 381.833,261.5 374.5,261.5C 374.415,229.164 374.082,196.831 373.5,164.5C 362.67,164.025 352.003,164.525 341.5,166C 341.521,197.685 341.521,229.518 341.5,261.5C 334.167,261.5 326.833,261.5 319.5,261.5C 319.833,183.332 319.499,105.332 318.5,27.5C 325.76,25.5349 333.427,24.8682 341.5,25.5C 341.333,56.1685 341.5,86.8351 342,117.5C 342.75,118.126 343.584,118.626 344.5,119C 354.189,119.693 363.856,119.527 373.5,118.5C 373.268,87.4784 373.601,56.4784 374.5,25.5C 381.833,25.5 389.167,25.5 396.5,25.5C 397.591,104.379 397.591,183.045 396.5,261.5 Z"/></g>
<g><path style="opacity:0.99" fill="#fcfcfc" d="M 410.5,25.5 C 432.167,25.5 453.833,25.5 475.5,25.5C 475.924,38.4576 476.257,51.2909 476.5,64C 475.922,65.8114 475.422,67.6447 475,69.5C 461.166,69.839 447.499,70.839 434,72.5C 434.139,88.0341 434.306,103.367 434.5,118.5C 446.136,119.413 457.803,119.746 469.5,119.5C 469.5,133.833 469.5,148.167 469.5,162.5C 457.814,162.168 446.148,162.501 434.5,163.5C 434.622,181.27 434.289,198.77 433.5,216C 447.254,217.158 461.088,217.992 475,218.5C 476.833,233.482 476.999,248.482 475.5,263.5C 453.833,263.5 432.167,263.5 410.5,263.5C 409.463,184.19 409.463,104.857 410.5,25.5 Z"/></g>
<g><path style="opacity:0.977" fill="#fdfdfd" d="M 533.5,260.5 C 517.188,261.406 500.854,261.74 484.5,261.5C 483.466,183.238 483.466,104.571 484.5,25.5C 497.837,25.3334 511.171,25.5001 524.5,26C 536.72,28.5539 544.887,35.7206 549,47.5C 555.177,66.999 557.177,87.3323 555,108.5C 554.218,120.508 550.385,131.675 543.5,142C 550.123,149.853 554.456,158.853 556.5,169C 557.832,185.971 557.832,202.971 556.5,220C 556.13,223.287 555.13,226.287 553.5,229C 552.462,240.066 547.462,249.733 538.5,258C 536.807,258.847 535.14,259.68 533.5,260.5 Z M 508.5,70.5 C 523.123,67.7213 530.956,73.7213 532,88.5C 533.394,98.8966 532.061,108.897 528,118.5C 524.913,122.792 520.746,124.458 515.5,123.5C 512.713,123.426 510.213,122.76 508,121.5C 507.812,104.433 507.979,87.4333 508.5,70.5 Z M 508.5,162.5 C 513.844,162.334 519.177,162.501 524.5,163C 528.77,164.679 531.27,167.845 532,172.5C 533.453,182.126 533.786,191.793 533,201.5C 531.266,216.141 523.1,221.474 508.5,217.5C 507.18,199.154 507.18,180.821 508.5,162.5 Z"/></g>
<g><path style="opacity:0.995" fill="#fefefe" d="M 673.5,25.5 C 674.5,25.5 675.5,25.5 676.5,25.5C 676.5,104.167 676.5,182.833 676.5,261.5C 669.167,261.5 661.833,261.5 654.5,261.5C 654.5,183.167 654.5,104.833 654.5,26.5C 661.022,26.8235 667.355,26.4902 673.5,25.5 Z"/></g>
<g><path style="opacity:0.983" fill="#fdfcfc" d="M 774.5,262.5 C 766.684,261.508 758.684,261.174 750.5,261.5C 748.411,247.541 746.411,233.541 744.5,219.5C 745.043,219.44 745.376,219.107 745.5,218.5C 735.188,217.501 724.855,217.168 714.5,217.5C 713.949,220.807 713.616,224.14 713.5,227.5C 713.611,228.117 713.944,228.617 714.5,229C 713.301,239.202 711.635,249.536 709.5,260C 711.007,261.667 710.673,262.834 708.5,263.5C 708.082,262.778 707.416,262.278 706.5,262C 700.167,261.333 693.833,261.333 687.5,262C 686.944,262.383 686.611,262.883 686.5,263.5C 685.475,262.626 684.808,261.459 684.5,260C 696.162,182.193 707.662,104.36 719,26.5C 720.194,25.5697 721.527,24.9031 723,24.5C 729.119,25.4383 735.286,25.7717 741.5,25.5C 752.65,103.336 763.983,181.336 775.5,259.5C 775.48,260.726 775.147,261.726 774.5,262.5 Z M 729.5,103.5 C 730.222,103.918 730.722,104.584 731,105.5C 733.584,127.839 736.084,150.173 738.5,172.5C 732.74,173.117 727.073,173.45 721.5,173.5C 723.508,150.099 726.174,126.766 729.5,103.5 Z"/></g>
<g><path style="opacity:0.985" fill="#fdfdfd" d="M 860.5,261.5 C 852.833,261.5 845.167,261.5 837.5,261.5C 827.276,216.885 817.109,172.218 807,127.5C 805.86,141.101 805.36,154.768 805.5,168.5C 806.364,200.103 806.364,231.769 805.5,263.5C 797.804,263.831 790.138,263.497 782.5,262.5C 782.291,261.914 781.957,261.414 781.5,261C 782.296,182.829 782.63,104.329 782.5,25.5C 790.105,24.9262 797.772,25.2595 805.5,26.5C 811.974,53.3981 818.307,80.3981 824.5,107.5C 824.291,108.086 823.957,108.586 823.5,109C 827.778,125.822 832.111,142.656 836.5,159.5C 837.333,114.837 837.833,70.1704 838,25.5C 845.29,25.4323 852.79,25.4323 860.5,25.5C 860.51,104.388 860.51,183.054 860.5,261.5 Z"/></g>
<g><path style="opacity:0.99" fill="#fdfdfd" d="M 617.5,260.5 C 601.188,261.406 584.854,261.74 568.5,261.5C 568.5,182.833 568.5,104.167 568.5,25.5C 578.533,25.7845 588.533,25.4512 598.5,24.5C 610.699,24.2835 620.532,28.9502 628,38.5C 634.793,50.5152 638.46,63.1819 639,76.5C 639.997,90.5881 639.33,104.588 637,118.5C 635.77,126.624 632.603,134.291 627.5,141.5C 633.733,148.301 637.566,156.301 639,165.5C 643.793,193.72 641.793,220.387 633,245.5C 629.265,252.069 624.099,257.069 617.5,260.5 Z M 592.5,70.5 C 598.434,69.8887 604.1,70.722 609.5,73C 611.652,75.4689 613.152,78.3022 614,81.5C 617.458,93.2618 617.125,104.928 613,116.5C 611.5,119.333 609.333,121.5 606.5,123C 601.833,123.667 597.167,123.667 592.5,123C 592.043,122.586 591.709,122.086 591.5,121.5C 591.525,105.061 591.859,88.0606 592.5,70.5 Z M 608.5,162.5 C 610.437,163.931 612.27,165.598 614,167.5C 619.233,181.354 619.733,195.354 615.5,209.5C 614.079,212.758 611.746,215.258 608.5,217C 603.136,217.829 597.802,217.663 592.5,216.5C 592.013,215.554 591.68,214.554 591.5,213.5C 591.582,196.846 591.582,180.346 591.5,164C 596.981,162.551 602.648,162.051 608.5,162.5 Z"/></g>
<g><path style="opacity:1" fill="#8d6dbd" d="M 139.5,10.5 C 140.492,10.3284 141.158,10.6618 141.5,11.5C 141.945,14.3646 141.278,16.8646 139.5,19C 133.509,19.4995 127.509,19.6662 121.5,19.5C 122.103,24.6186 121.436,29.2853 119.5,33.5C 119.334,28.8215 119.501,24.1548 120,19.5C 120.5,19 121,18.5 121.5,18C 127.167,17.6667 132.833,17.3333 138.5,17C 139.423,14.9592 139.756,12.7925 139.5,10.5 Z"/></g>
<g><path style="opacity:1" fill="#e41a1b" d="M 174.5,10.5 C 181.097,11.8876 186.597,15.2209 191,20.5C 192.667,24.5 194.333,28.5 196,32.5C 212.583,24.6868 226.25,28.3535 237,43.5C 237.791,44.745 238.291,46.0783 238.5,47.5C 240.795,58.0533 241.129,68.72 239.5,79.5C 239.721,80.7348 240.388,81.7348 241.5,82.5C 238.027,83.2916 234.694,84.2916 231.5,85.5C 232.162,84.2038 233.662,80.8705 236,75.5C 236.818,69.6513 236.652,63.9846 235.5,58.5C 234.833,57.5 234.167,56.5 233.5,55.5C 233.051,52.359 232.051,49.359 230.5,46.5C 229.643,45.5748 228.643,44.9081 227.5,44.5C 225.225,40.6927 221.892,38.3593 217.5,37.5C 215.193,35.9532 212.527,35.2865 209.5,35.5C 207.5,35.6667 205.5,35.8333 203.5,36C 202.944,36.3826 202.611,36.8826 202.5,37.5C 196.666,39.2696 192,42.7696 188.5,48C 186.866,48.4935 185.199,48.6602 183.5,48.5C 182.966,44.5217 184.466,41.5217 188,39.5C 189.555,33.203 188.055,27.8697 183.5,23.5C 181.833,22.1667 180.167,20.8333 178.5,19.5C 178.389,18.8826 178.056,18.3826 177.5,18C 168.189,15.1655 161.522,17.9988 157.5,26.5C 155.896,27.287 155.229,28.6203 155.5,30.5C 154.341,41.3255 154.174,52.3255 155,63.5C 155.792,66.1064 157.292,68.1064 159.5,69.5C 161.372,72.4832 163.372,75.4832 165.5,78.5C 163.018,78.6057 160.518,78.9391 158,79.5C 155.051,82.9502 153.884,86.9502 154.5,91.5C 153.337,115.33 153.17,139.33 154,163.5C 154.735,165.871 155.568,168.205 156.5,170.5C 156.957,171.298 157.624,171.631 158.5,171.5C 159.906,171.973 160.573,172.973 160.5,174.5C 164.511,175.673 168.511,175.173 172.5,173C 174.213,169.324 175.546,165.491 176.5,161.5C 177.421,159.244 179.088,158.244 181.5,158.5C 181.5,159.833 181.5,161.167 181.5,162.5C 180.264,166.965 180.264,171.299 181.5,175.5C 182.243,179.915 184.576,183.248 188.5,185.5C 188.5,186.833 188.5,188.167 188.5,189.5C 186.712,189.785 185.045,189.452 183.5,188.5C 180.843,185.853 178.677,182.853 177,179.5C 175.874,178.056 174.374,177.39 172.5,177.5C 165.913,178.579 160.746,181.913 157,187.5C 156.5,187.167 156,186.833 155.5,186.5C 157.402,184.937 158.402,182.937 158.5,180.5C 155.777,176.737 153.277,172.737 151,168.5C 149.382,143.875 149.049,119.208 150,94.5C 150.333,91.5 150.667,88.5 151,85.5C 153.443,82.3949 154.943,78.8949 155.5,75C 153.819,69.7989 151.985,64.6323 150,59.5C 149.5,49.5056 149.334,39.5056 149.5,29.5C 149.5,28.1667 149.5,26.8333 149.5,25.5C 151.881,20.7578 155.214,16.7578 159.5,13.5C 164.357,11.8836 169.357,10.8836 174.5,10.5 Z"/></g>
<g><path style="opacity:1" fill="#d19322" d="M 217.5,37.5 C 212.486,36.2306 207.486,36.2306 202.5,37.5C 202.611,36.8826 202.944,36.3826 203.5,36C 205.5,35.8333 207.5,35.6667 209.5,35.5C 212.527,35.2865 215.193,35.9532 217.5,37.5 Z"/></g>
<g><path style="opacity:1" fill="#d4a026" d="M 178.5,19.5 C 173.793,18.0774 169.126,18.2441 164.5,20C 162.272,22.2993 159.939,24.4659 157.5,26.5C 161.522,17.9988 168.189,15.1655 177.5,18C 178.056,18.3826 178.389,18.8826 178.5,19.5 Z"/></g>
<g><path style="opacity:1" fill="#bdcb19" d="M 217.5,37.5 C 221.892,38.3593 225.225,40.6927 227.5,44.5C 223.919,43.7614 220.919,42.0948 218.5,39.5C 213.533,38.3377 208.533,38.1711 203.5,39C 201.933,41.741 199.599,42.9077 196.5,42.5C 198.249,40.4842 200.249,38.8175 202.5,37.5C 207.486,36.2306 212.486,36.2306 217.5,37.5 Z"/></g>
<g><path style="opacity:1" fill="#c2741c" d="M 149.5,25.5 C 149.5,26.8333 149.5,28.1667 149.5,29.5C 148.222,40.6928 148.222,52.0262 149.5,63.5C 148.883,63.3893 148.383,63.056 148,62.5C 147.5,52.172 147.334,41.8387 147.5,31.5C 147.259,29.1016 147.926,27.1016 149.5,25.5 Z"/></g>
<g><path style="opacity:1" fill="#995ca9" d="M 118.5,33.5 C 118.833,33.5 119.167,33.5 119.5,33.5C 120.001,38.4871 118.335,42.4871 114.5,45.5C 115.833,42.1667 117.167,38.8333 118.5,35.5C 118.5,34.8333 118.5,34.1667 118.5,33.5 Z"/></g>
<g><path style="opacity:1" fill="#cb9f1f" d="M 183.5,23.5 C 188.055,27.8697 189.555,33.203 188,39.5C 184.466,41.5217 182.966,44.5217 183.5,48.5C 185.199,48.6602 186.866,48.4935 188.5,48C 192,42.7696 196.666,39.2696 202.5,37.5C 200.249,38.8175 198.249,40.4842 196.5,42.5C 193.194,44.5815 190.194,47.0815 187.5,50C 186.167,50.6667 184.833,50.6667 183.5,50C 180.315,44.8989 181.482,41.0656 187,38.5C 187.167,37.5 187.333,36.5 187.5,35.5C 186.128,31.4438 184.795,27.4438 183.5,23.5 Z"/></g>
<g><path style="opacity:0.008" fill="#000000" d="M 362.5,43.5 C 363.833,44.1667 363.833,44.1667 362.5,43.5 Z"/></g>
<g><path style="opacity:1" fill="#ba275c" d="M 118.5,35.5 C 117.167,38.8333 115.833,42.1667 114.5,45.5C 112.809,46.8637 111.142,48.197 109.5,49.5C 108.391,49.5569 107.391,49.8902 106.5,50.5C 108.413,48.7089 110.08,46.7089 111.5,44.5C 114.009,41.6471 116.343,38.6471 118.5,35.5 Z"/></g>
<g><path style="opacity:1" fill="#df1733" d="M 114.5,29.5 C 114.656,34.6854 112.99,39.1854 109.5,43C 109.836,44.0299 110.503,44.5299 111.5,44.5C 110.08,46.7089 108.413,48.7089 106.5,50.5C 99.0942,53.5267 91.4276,54.1933 83.5,52.5C 79.8417,49.8447 76.1751,47.178 72.5,44.5C 72.4413,42.2776 71.2747,41.2776 69,41.5C 66.4655,41.8677 64.6322,43.201 63.5,45.5C 61.9382,45.7329 60.6049,46.3995 59.5,47.5C 54.5406,52.1232 49.5406,56.7898 44.5,61.5C 42.9111,63.9067 41.5778,66.4067 40.5,69C 40.6842,70.3756 41.3509,71.2089 42.5,71.5C 43.4194,74.0892 45.086,76.0892 47.5,77.5C 50.0123,79.4784 51.5123,82.1451 52,85.5C 52.6258,91.1949 52.4591,96.8615 51.5,102.5C 51.5,103.167 51.5,103.833 51.5,104.5C 47.9261,107.463 44.9261,110.963 42.5,115C 35.5476,119.611 27.8809,121.778 19.5,121.5C 19.4142,120.504 19.7476,119.671 20.5,119C 23.5,118.667 26.5,118.333 29.5,118C 26.6353,117.817 23.9686,117.317 21.5,116.5C 25.3293,117.069 28.6627,116.402 31.5,114.5C 43.3815,109.077 48.2148,99.7441 46,86.5C 43.9526,80.4545 40.1192,75.9545 34.5,73C 33.9415,72.2753 33.6082,71.4419 33.5,70.5C 36.0378,65.1233 39.2045,60.1233 43,55.5C 50.8995,46.9305 59.3995,39.0972 68.5,32C 69.5,31.3333 70.5,31.3333 71.5,32C 74.0534,37.5521 77.7201,42.2187 82.5,46C 98.824,51.3386 109.491,45.8386 114.5,29.5 Z"/></g>
<g><path style="opacity:1" fill="#9767b2" d="M 72.5,44.5 C 74.5,46.8333 76.5,49.1667 78.5,51.5C 77.325,51.719 76.325,51.3857 75.5,50.5C 73.4728,47.8061 71.1395,45.4728 68.5,43.5C 66.8228,44.1869 65.1561,44.8535 63.5,45.5C 64.6322,43.201 66.4655,41.8677 69,41.5C 71.2747,41.2776 72.4413,42.2776 72.5,44.5 Z"/></g>
<g><path style="opacity:1" fill="#cfb923" d="M 157.5,26.5 C 156.208,38.8141 156.208,51.1475 157.5,63.5C 156.732,62.7375 156.232,61.7375 156,60.5C 155.5,50.5056 155.334,40.5056 155.5,30.5C 155.229,28.6203 155.896,27.287 157.5,26.5 Z"/></g>
<g><path style="opacity:1" fill="#9267b5" d="M 63.5,45.5 C 58.4813,52.1833 52.8146,58.1833 46.5,63.5C 47.412,61.4048 48.5787,59.4048 50,57.5C 54.0462,54.955 57.2129,51.6217 59.5,47.5C 60.6049,46.3995 61.9382,45.7329 63.5,45.5 Z"/></g>
<g><path style="opacity:1" fill="#a34687" d="M 72.5,44.5 C 76.1751,47.178 79.8417,49.8447 83.5,52.5C 91.4276,54.1933 99.0942,53.5267 106.5,50.5C 107.391,49.8902 108.391,49.5569 109.5,49.5C 108.426,50.8846 107.093,52.0513 105.5,53C 98.301,55.1947 90.9677,55.8614 83.5,55C 82.1537,53.3308 80.487,52.1642 78.5,51.5C 76.5,49.1667 74.5,46.8333 72.5,44.5 Z"/></g>
<g><path style="opacity:1" fill="#c73a03" d="M 204.5,50.5 C 205.479,53.6248 205.813,56.9581 205.5,60.5C 204.167,62.8333 202.833,65.1667 201.5,67.5C 203.041,62.6362 203.708,57.6362 203.5,52.5C 202.5,52.5 201.5,52.5 200.5,52.5C 200.78,58.0029 199.113,62.6696 195.5,66.5C 197.173,61.9768 198.34,57.3101 199,52.5C 200.444,50.8446 202.278,50.178 204.5,50.5 Z"/></g>
<g><path style="opacity:0.88" fill="#c52f2d" d="M 238.5,47.5 C 240.328,50.135 241.495,53.135 242,56.5C 242.95,63.6291 242.45,70.6291 240.5,77.5C 241.624,78.8592 242.958,79.8592 244.5,80.5C 244.167,80.5 243.833,80.5 243.5,80.5C 242.041,80.5674 240.708,80.2341 239.5,79.5C 241.129,68.72 240.795,58.0533 238.5,47.5 Z"/></g>
<g><path style="opacity:1" fill="#ba275c" d="M 59.5,47.5 C 57.2129,51.6217 54.0462,54.955 50,57.5C 48.5787,59.4048 47.412,61.4048 46.5,63.5C 43.1069,65.073 41.7736,67.7396 42.5,71.5C 41.3509,71.2089 40.6842,70.3756 40.5,69C 41.5778,66.4067 42.9111,63.9067 44.5,61.5C 49.5406,56.7898 54.5406,52.1232 59.5,47.5 Z"/></g>
<g><path style="opacity:1" fill="#cd6113" d="M 155.5,30.5 C 155.334,40.5056 155.5,50.5056 156,60.5C 156.232,61.7375 156.732,62.7375 157.5,63.5C 157.392,65.5138 158.058,67.1805 159.5,68.5C 159.5,68.8333 159.5,69.1667 159.5,69.5C 157.292,68.1064 155.792,66.1064 155,63.5C 154.174,52.3255 154.341,41.3255 155.5,30.5 Z"/></g>
<g><path style="opacity:1" fill="#c1c71a" d="M 227.5,44.5 C 228.643,44.9081 229.643,45.5748 230.5,46.5C 232.051,49.359 233.051,52.359 233.5,55.5C 233.821,61.0262 233.488,66.3595 232.5,71.5C 232.666,65.8236 232.499,60.1569 232,54.5C 230.199,51.2366 228.699,47.9033 227.5,44.5 Z"/></g>
<g><path style="opacity:1" fill="#d3ac23" d="M 233.5,55.5 C 234.167,56.5 234.833,57.5 235.5,58.5C 236.192,66.0059 234.859,73.0059 231.5,79.5C 231.5,78.1667 231.5,76.8333 231.5,75.5C 231.833,74.1667 232.167,72.8333 232.5,71.5C 233.488,66.3595 233.821,61.0262 233.5,55.5 Z"/></g>
<g><path style="opacity:1" fill="#cbb421" d="M 199.5,49.5 C 201.415,49.2155 203.081,49.5489 204.5,50.5C 202.278,50.178 200.444,50.8446 199,52.5C 198.34,57.3101 197.173,61.9768 195.5,66.5C 192.2,70.6312 188.367,74.2979 184,77.5C 179.024,78.7783 174.19,78.7783 169.5,77.5C 173.555,77.8242 177.555,77.4909 181.5,76.5C 184.812,74.1962 188.146,71.8629 191.5,69.5C 194.975,63.1238 197.642,56.4571 199.5,49.5 Z"/></g>
<g><path style="opacity:1" fill="#cfae21" d="M 159.5,69.5 C 159.5,69.1667 159.5,68.8333 159.5,68.5C 163.436,70.7657 166.769,73.7657 169.5,77.5C 165.897,75.2369 162.564,72.5703 159.5,69.5 Z"/></g>
<g><path style="opacity:1" fill="#b5d213" d="M 199.5,49.5 C 201.948,48.5269 204.615,48.1936 207.5,48.5C 207.003,57.2509 206.669,65.9175 206.5,74.5C 209.174,79.5563 210.841,84.8896 211.5,90.5C 214.436,89.5942 217.436,88.9275 220.5,88.5C 220.297,86.6096 220.963,85.1096 222.5,84C 221.62,82.6439 221.286,81.1439 221.5,79.5C 222.833,79.5 224.167,79.5 225.5,79.5C 225.238,78.0222 225.571,76.6888 226.5,75.5C 227.1,77.5756 227.433,79.5756 227.5,81.5C 228.885,79.4228 230.218,77.4228 231.5,75.5C 231.5,76.8333 231.5,78.1667 231.5,79.5C 226.697,88.2302 219.364,92.8969 209.5,93.5C 208.793,90.2139 208.46,86.8806 208.5,83.5C 208.17,79.9793 206.67,76.9793 204,74.5C 203.833,73.5 203.667,72.5 203.5,71.5C 204.33,67.8514 204.996,64.1847 205.5,60.5C 205.813,56.9581 205.479,53.6248 204.5,50.5C 203.081,49.5489 201.415,49.2155 199.5,49.5 Z"/></g>
<g><path style="opacity:1" fill="#ae2960" d="M 42.5,71.5 C 42.8333,71.5 43.1667,71.5 43.5,71.5C 45.2516,73.2459 46.5849,75.2459 47.5,77.5C 45.086,76.0892 43.4194,74.0892 42.5,71.5 Z"/></g>
<g><path style="opacity:0.004" fill="#fefffe" d="M 703.5,73.5 C 704.833,74.1667 704.833,74.1667 703.5,73.5 Z"/></g>
<g><path style="opacity:1" fill="#c7bc28" d="M 147.5,31.5 C 147.334,41.8387 147.5,52.172 148,62.5C 148.383,63.056 148.883,63.3893 149.5,63.5C 151.514,66.7019 152.847,70.2019 153.5,74C 153.607,76.2206 152.94,78.0539 151.5,79.5C 151.664,76.8127 151.497,74.146 151,71.5C 148.869,69.8831 147.369,67.8831 146.5,65.5C 146.172,53.9877 146.505,42.6544 147.5,31.5 Z"/></g>
<g><path style="opacity:1" fill="#d2350e" d="M 195.5,66.5 C 194.851,69.9446 193.518,73.1113 191.5,76C 184.341,79.6884 176.674,81.355 168.5,81C 168.957,81.414 169.291,81.914 169.5,82.5C 177.457,84.5829 184.79,83.4163 191.5,79C 193.712,78.2109 195.712,78.3775 197.5,79.5C 195.801,79.3398 194.134,79.5065 192.5,80C 190.007,81.4186 187.674,82.9186 185.5,84.5C 176.568,86.792 168.234,85.4587 160.5,80.5C 159.522,80.9767 158.689,81.6433 158,82.5C 156.704,85.5711 155.538,88.5711 154.5,91.5C 153.884,86.9502 155.051,82.9502 158,79.5C 160.518,78.9391 163.018,78.6057 165.5,78.5C 163.372,75.4832 161.372,72.4832 159.5,69.5C 162.564,72.5703 165.897,75.2369 169.5,77.5C 174.19,78.7783 179.024,78.7783 184,77.5C 188.367,74.2979 192.2,70.6312 195.5,66.5 Z"/></g>
<g><path style="opacity:1" fill="#d29a20" d="M 197.5,79.5 C 202.331,85.4411 203.664,92.1078 201.5,99.5C 201.665,95.8183 201.499,92.1516 201,88.5C 200.8,86.6803 199.966,85.347 198.5,84.5C 197.766,83.2921 197.433,81.9587 197.5,80.5C 193.93,81.2865 190.597,82.6199 187.5,84.5C 186.833,84.5 186.167,84.5 185.5,84.5C 187.674,82.9186 190.007,81.4186 192.5,80C 194.134,79.5065 195.801,79.3398 197.5,79.5 Z"/></g>
<g><path style="opacity:1" fill="#a9d814" d="M 146.5,65.5 C 147.369,67.8831 148.869,69.8831 151,71.5C 151.497,74.146 151.664,76.8127 151.5,79.5C 151.672,80.4916 151.338,81.1583 150.5,81.5C 149.167,82.5 147.833,83.5 146.5,84.5C 146.5,78.1667 146.5,71.8333 146.5,65.5 Z"/></g>
<g><path style="opacity:1" fill="#cab224" d="M 205.5,60.5 C 204.996,64.1847 204.33,67.8514 203.5,71.5C 203.667,72.5 203.833,73.5 204,74.5C 206.67,76.9793 208.17,79.9793 208.5,83.5C 207.833,83.1667 207.167,82.8333 206.5,82.5C 206.038,78.9948 204.538,75.9948 202,73.5C 201.505,71.5273 201.338,69.5273 201.5,67.5C 202.833,65.1667 204.167,62.8333 205.5,60.5 Z"/></g>
<g><path style="opacity:0.008" fill="#000000" d="M 557.5,80.5 C 558.833,81.1667 558.833,81.1667 557.5,80.5 Z"/></g>
<g><path style="opacity:1" fill="#6887e7" d="M 142.5,83.5 C 142.5,87.5 142.5,91.5 142.5,95.5C 138.378,95.3403 134.044,95.3403 129.5,95.5C 133.21,93.8643 137.21,93.1977 141.5,93.5C 141.5,90.8333 141.5,88.1667 141.5,85.5C 131.625,84.2511 122.625,86.2511 114.5,91.5C 113.833,92.5 113.167,93.5 112.5,94.5C 110.407,95.0447 108.407,95.878 106.5,97C 101.809,100.838 98.1427,105.338 95.5,110.5C 95.5,110.833 95.5,111.167 95.5,111.5C 94.6236,111.369 93.9569,111.702 93.5,112.5C 90.0663,118.647 87.3996,124.98 85.5,131.5C 85.3367,129.143 85.5034,126.81 86,124.5C 87.3718,120.988 89.0384,117.655 91,114.5C 91.3333,111.833 91.6667,109.167 92,106.5C 93.1711,105.107 94.6711,104.273 96.5,104C 96.0426,103.586 95.7093,103.086 95.5,102.5C 96.4978,99.9722 97.3311,99.9722 98,102.5C 99.8998,100.381 101.566,98.0472 103,95.5C 103.414,95.9574 103.914,96.2907 104.5,96.5C 106.452,93.3996 109.119,91.2329 112.5,90C 112.167,89.6667 111.833,89.3333 111.5,89C 113.167,88.6667 114.833,88.3333 116.5,88C 117.313,86.197 118.48,84.697 120,83.5C 127.501,83.3328 135.001,83.3328 142.5,83.5 Z"/></g>
<g><path style="opacity:0.449" fill="#dddbdb" d="M 673.5,25.5 C 667.355,26.4902 661.022,26.8235 654.5,26.5C 654.5,104.833 654.5,183.167 654.5,261.5C 661.833,261.5 669.167,261.5 676.5,261.5C 676.389,262.117 676.056,262.617 675.5,263C 668.174,263.5 660.841,263.666 653.5,263.5C 653.5,184.167 653.5,104.833 653.5,25.5C 660.108,25.0457 666.774,25.0457 673.5,25.5 Z"/></g>
<g><path style="opacity:1" fill="#c7b31f" d="M 185.5,84.5 C 186.167,84.5 186.833,84.5 187.5,84.5C 183.979,86.9144 179.979,87.9144 175.5,87.5C 170.382,87.0422 165.382,86.0422 160.5,84.5C 160.532,86.6188 159.532,87.9522 157.5,88.5C 156.189,114.694 156.189,141.027 157.5,167.5C 156.207,166.158 155.374,164.491 155,162.5C 154.5,138.836 154.333,115.169 154.5,91.5C 155.538,88.5711 156.704,85.5711 158,82.5C 158.689,81.6433 159.522,80.9767 160.5,80.5C 168.234,85.4587 176.568,86.792 185.5,84.5 Z"/></g>
<g><path style="opacity:1" fill="#9065b3" d="M 129.5,95.5 C 127.436,95.687 125.436,96.187 123.5,97C 119.739,99.7646 115.739,102.098 111.5,104C 108.631,107.038 105.631,109.871 102.5,112.5C 105.098,108.562 108.098,104.895 111.5,101.5C 115.202,99.9764 118.536,97.8097 121.5,95C 124.104,94.6097 126.438,93.7763 128.5,92.5C 131.713,92.81 134.713,92.4767 137.5,91.5C 139.71,90.5449 140.043,89.0449 138.5,87C 133.068,85.9859 128.068,86.8193 123.5,89.5C 120.402,89.7556 117.402,90.4222 114.5,91.5C 122.625,86.2511 131.625,84.2511 141.5,85.5C 141.5,88.1667 141.5,90.8333 141.5,93.5C 137.21,93.1977 133.21,93.8643 129.5,95.5 Z"/></g>
<g><path style="opacity:1" fill="#bd2150" d="M 137.5,91.5 C 137.5,90.5 137.5,89.5 137.5,88.5C 132.848,88.9981 128.181,89.3314 123.5,89.5C 128.068,86.8193 133.068,85.9859 138.5,87C 140.043,89.0449 139.71,90.5449 137.5,91.5 Z"/></g>
<g><path style="opacity:1" fill="#d5370f" d="M 235.5,58.5 C 236.652,63.9846 236.818,69.6513 236,75.5C 233.662,80.8705 232.162,84.2038 231.5,85.5C 234.694,84.2916 238.027,83.2916 241.5,82.5C 240.388,81.7348 239.721,80.7348 239.5,79.5C 240.708,80.2341 242.041,80.5674 243.5,80.5C 245.19,86.0505 248.69,90.3839 254,93.5C 255.275,95.7173 256.275,98.0506 257,100.5C 257.667,107.167 257.667,113.833 257,120.5C 256.275,121.059 255.442,121.392 254.5,121.5C 252.664,120.604 250.997,119.604 249.5,118.5C 251.5,118.5 253.5,118.5 255.5,118.5C 257.167,111.003 256.667,103.67 254,96.5C 252.951,94.6156 251.451,93.2823 249.5,92.5C 247.589,90.2976 245.255,88.631 242.5,87.5C 241.688,86.0069 240.355,85.3402 238.5,85.5C 233.503,89.496 228.503,93.496 223.5,97.5C 219.127,99.6562 214.46,100.989 209.5,101.5C 208.34,103.711 207.007,105.711 205.5,107.5C 205.055,104.635 205.722,102.135 207.5,100C 210.711,98.8468 214.044,98.1802 217.5,98C 218.357,97.3109 219.023,96.4776 219.5,95.5C 216.003,95.4724 212.336,95.3057 208.5,95C 208,94.5 207.5,94 207,93.5C 206.501,89.8484 206.335,86.1817 206.5,82.5C 207.167,82.8333 207.833,83.1667 208.5,83.5C 208.46,86.8806 208.793,90.2139 209.5,93.5C 219.364,92.8969 226.697,88.2302 231.5,79.5C 234.859,73.0059 236.192,66.0059 235.5,58.5 Z"/></g>
<g><path style="opacity:1" fill="#e10f30" d="M 137.5,91.5 C 134.713,92.4767 131.713,92.81 128.5,92.5C 125.507,93.1346 122.507,93.3013 119.5,93C 120.591,91.4499 121.924,90.2832 123.5,89.5C 128.181,89.3314 132.848,88.9981 137.5,88.5C 137.5,89.5 137.5,90.5 137.5,91.5 Z"/></g>
<g><path style="opacity:1" fill="#cc9820" d="M 242.5,87.5 C 240.011,87.2978 237.677,87.7978 235.5,89C 232.405,93.285 228.405,96.1183 223.5,97.5C 228.503,93.496 233.503,89.496 238.5,85.5C 240.355,85.3402 241.688,86.0069 242.5,87.5 Z"/></g>
<g><path style="opacity:1" fill="#c81d47" d="M 123.5,89.5 C 121.924,90.2832 120.591,91.4499 119.5,93C 122.507,93.3013 125.507,93.1346 128.5,92.5C 126.438,93.7763 124.104,94.6097 121.5,95C 118.536,97.8097 115.202,99.9764 111.5,101.5C 113.059,99.3757 115.059,97.709 117.5,96.5C 118.386,95.675 118.719,94.675 118.5,93.5C 116.435,93.5172 114.435,93.8505 112.5,94.5C 113.167,93.5 113.833,92.5 114.5,91.5C 117.402,90.4222 120.402,89.7556 123.5,89.5 Z"/></g>
<g><path style="opacity:1" fill="#9462ae" d="M 43.5,71.5 C 45.5952,72.412 47.5952,73.5787 49.5,75C 53.8682,82.6256 55.2015,90.7923 53.5,99.5C 53.3601,101.03 52.6935,102.03 51.5,102.5C 52.4591,96.8615 52.6258,91.1949 52,85.5C 51.5123,82.1451 50.0123,79.4784 47.5,77.5C 46.5849,75.2459 45.2516,73.2459 43.5,71.5 Z"/></g>
<g><path style="opacity:1" fill="#a5de04" d="M 249.5,94.5 C 251.223,96.2528 252.723,98.2528 254,100.5C 254.499,105.823 254.666,111.156 254.5,116.5C 252.833,116.5 251.167,116.5 249.5,116.5C 248.737,115.732 247.737,115.232 246.5,115C 242.179,114.501 237.846,114.334 233.5,114.5C 233.349,111.282 232.516,110.949 231,113.5C 229.167,111 227.333,108.5 225.5,106C 226.678,105.033 228.011,104.533 229.5,104.5C 230.661,102.622 229.994,101.622 227.5,101.5C 225.971,101.529 224.804,102.196 224,103.5C 223.5,103 223,102.5 222.5,102C 223.381,100.529 224.714,99.6962 226.5,99.5C 228.512,99.8396 230.512,100.173 232.5,100.5C 232.064,97.6359 232.897,95.3025 235,93.5C 235.451,95.9288 236.285,96.0955 237.5,94C 236.549,93.2825 236.383,92.4491 237,91.5C 239.28,92.833 241.614,94.1663 244,95.5C 245.638,93.482 247.471,93.1486 249.5,94.5 Z"/></g>
<g><path style="opacity:0.008" fill="#000000" d="M 758.5,96.5 C 759.833,97.1667 759.833,97.1667 758.5,96.5 Z"/></g>
<g><path style="opacity:1" fill="#c7ba1e" d="M 188.5,105.5 C 186.022,104.117 183.355,103.117 180.5,102.5C 178.372,101.371 176.039,101.204 173.5,102C 171.364,107.544 173.364,109.877 179.5,109C 180.056,109.383 180.389,109.883 180.5,110.5C 174.775,111.095 171.108,108.762 169.5,103.5C 169.529,101.971 170.196,100.804 171.5,100C 178.42,98.3631 184.087,100.196 188.5,105.5 Z"/></g>
<g><path style="opacity:1" fill="#a44181" d="M 112.5,94.5 C 106.177,99.1569 100.51,104.49 95.5,110.5C 98.1427,105.338 101.809,100.838 106.5,97C 108.407,95.878 110.407,95.0447 112.5,94.5 Z"/></g>
<g><path style="opacity:1" fill="#acd80d" d="M 242.5,87.5 C 245.255,88.631 247.589,90.2976 249.5,92.5C 249.5,93.1667 249.5,93.8333 249.5,94.5C 247.471,93.1486 245.638,93.482 244,95.5C 241.614,94.1663 239.28,92.833 237,91.5C 236.383,92.4491 236.549,93.2825 237.5,94C 236.285,96.0955 235.451,95.9288 235,93.5C 232.897,95.3025 232.064,97.6359 232.5,100.5C 230.512,100.173 228.512,99.8396 226.5,99.5C 224.714,99.6962 223.381,100.529 222.5,102C 223,102.5 223.5,103 224,103.5C 224.804,102.196 225.971,101.529 227.5,101.5C 229.994,101.622 230.661,102.622 229.5,104.5C 228.011,104.533 226.678,105.033 225.5,106C 227.333,108.5 229.167,111 231,113.5C 232.516,110.949 233.349,111.282 233.5,114.5C 237.846,114.334 242.179,114.501 246.5,115C 247.737,115.232 248.737,115.732 249.5,116.5C 242.833,116.5 236.167,116.5 229.5,116.5C 229.443,115.391 229.11,114.391 228.5,113.5C 226.928,107.585 223.261,105.585 217.5,107.5C 215.968,111.095 216.302,114.428 218.5,117.5C 216.203,118.739 215.87,120.572 217.5,123C 217.37,124.059 216.87,124.892 216,125.5C 213.584,121.026 211.584,116.36 210,111.5C 208.256,112.649 208.089,113.983 209.5,115.5C 208.5,116.167 207.5,116.833 206.5,117.5C 210.764,123.999 210.264,124.666 205,119.5C 204.333,120.167 203.667,120.833 203,121.5C 202.996,130.032 202.162,138.365 200.5,146.5C 197.5,146.5 194.5,146.5 191.5,146.5C 191.5,145.5 191.5,144.5 191.5,143.5C 194.054,144.388 196.721,144.721 199.5,144.5C 199.5,143.5 199.5,142.5 199.5,141.5C 199.5,140.833 199.5,140.167 199.5,139.5C 200.489,134.025 200.822,128.358 200.5,122.5C 200.351,121.448 200.517,120.448 201,119.5C 203.59,118.55 205.59,116.884 207,114.5C 208.677,110.98 210.01,107.313 211,103.5C 216.065,103.217 220.232,101.217 223.5,97.5C 228.405,96.1183 232.405,93.285 235.5,89C 237.677,87.7978 240.011,87.2978 242.5,87.5 Z"/></g>
<g><path style="opacity:1" fill="#e31c16" d="M 201.5,67.5 C 201.338,69.5273 201.505,71.5273 202,73.5C 204.538,75.9948 206.038,78.9948 206.5,82.5C 206.335,86.1817 206.501,89.8484 207,93.5C 207.5,94 208,94.5 208.5,95C 212.336,95.3057 216.003,95.4724 219.5,95.5C 219.023,96.4776 218.357,97.3109 217.5,98C 214.044,98.1802 210.711,98.8468 207.5,100C 205.722,102.135 205.055,104.635 205.5,107.5C 205.06,110.38 204.06,113.046 202.5,115.5C 197.423,117.334 196.256,120.667 199,125.5C 199.499,130.155 199.666,134.821 199.5,139.5C 199.5,140.167 199.5,140.833 199.5,141.5C 197.581,143.522 195.414,143.856 193,142.5C 194.318,134.346 193.652,126.346 191,118.5C 189.955,117.627 189.122,116.627 188.5,115.5C 185.744,109.363 180.911,106.363 174,106.5C 173.316,105.216 173.483,104.049 174.5,103C 176.473,102.505 178.473,102.338 180.5,102.5C 183.355,103.117 186.022,104.117 188.5,105.5C 190.144,109.006 192.811,110.506 196.5,110C 198.607,106.623 200.274,103.123 201.5,99.5C 203.664,92.1078 202.331,85.4411 197.5,79.5C 195.712,78.3775 193.712,78.2109 191.5,79C 184.79,83.4163 177.457,84.5829 169.5,82.5C 169.291,81.914 168.957,81.414 168.5,81C 176.674,81.355 184.341,79.6884 191.5,76C 193.518,73.1113 194.851,69.9446 195.5,66.5C 199.113,62.6696 200.78,58.0029 200.5,52.5C 201.5,52.5 202.5,52.5 203.5,52.5C 203.708,57.6362 203.041,62.6362 201.5,67.5 Z"/></g>
<g><path style="opacity:1" fill="#b52d63" d="M 111.5,101.5 C 108.098,104.895 105.098,108.562 102.5,112.5C 101.061,114.36 99.3947,116.027 97.5,117.5C 100.39,110.61 105.057,105.276 111.5,101.5 Z"/></g>
<g><path style="opacity:1" fill="#c8be1e" d="M 198.5,84.5 C 199.966,85.347 200.8,86.6803 201,88.5C 201.499,92.1516 201.665,95.8183 201.5,99.5C 200.274,103.123 198.607,106.623 196.5,110C 192.811,110.506 190.144,109.006 188.5,105.5C 191.3,105.889 193.967,106.389 196.5,107C 201.038,99.9202 201.704,92.4202 198.5,84.5 Z"/></g>
<g><path style="opacity:1" fill="#c7bb1e" d="M 228.5,113.5 C 226.438,111.436 224.105,109.769 221.5,108.5C 219.133,108.513 217.8,109.68 217.5,112C 217.684,113.376 218.351,114.209 219.5,114.5C 223.801,119.223 224.468,124.223 221.5,129.5C 222.263,126.859 222.43,124.192 222,121.5C 220.624,120.295 219.458,118.962 218.5,117.5C 216.302,114.428 215.968,111.095 217.5,107.5C 223.261,105.585 226.928,107.585 228.5,113.5 Z"/></g>
<g><path style="opacity:1" fill="#c24106" d="M 180.5,102.5 C 178.473,102.338 176.473,102.505 174.5,103C 173.483,104.049 173.316,105.216 174,106.5C 180.911,106.363 185.744,109.363 188.5,115.5C 186.348,113.015 183.681,111.349 180.5,110.5C 180.389,109.883 180.056,109.383 179.5,109C 173.364,109.877 171.364,107.544 173.5,102C 176.039,101.204 178.372,101.371 180.5,102.5 Z"/></g>
<g><path style="opacity:1" fill="#c9b01f" d="M 249.5,92.5 C 251.451,93.2823 252.951,94.6156 254,96.5C 256.667,103.67 257.167,111.003 255.5,118.5C 253.5,118.5 251.5,118.5 249.5,118.5C 242.701,117.906 236.034,117.239 229.5,116.5C 236.167,116.5 242.833,116.5 249.5,116.5C 251.167,116.5 252.833,116.5 254.5,116.5C 254.666,111.156 254.499,105.823 254,100.5C 252.723,98.2528 251.223,96.2528 249.5,94.5C 249.5,93.8333 249.5,93.1667 249.5,92.5 Z"/></g>
<g><path style="opacity:1" fill="#bdc81a" d="M 223.5,97.5 C 220.232,101.217 216.065,103.217 211,103.5C 210.01,107.313 208.677,110.98 207,114.5C 205.59,116.884 203.59,118.55 201,119.5C 200.517,120.448 200.351,121.448 200.5,122.5C 199.402,121.399 199.235,120.066 200,118.5C 201.045,117.627 201.878,116.627 202.5,115.5C 204.06,113.046 205.06,110.38 205.5,107.5C 207.007,105.711 208.34,103.711 209.5,101.5C 214.46,100.989 219.127,99.6562 223.5,97.5 Z"/></g>
<g><path style="opacity:0.573" fill="#cf4c47" d="M 257.5,90.5 C 259.136,91.7489 260.303,93.4156 261,95.5C 262.812,100.515 263.979,105.681 264.5,111C 263.56,115.868 262.56,120.701 261.5,125.5C 260.549,124.081 260.216,122.415 260.5,120.5C 262.519,114.74 263.019,108.74 262,102.5C 259.741,98.7694 258.241,94.7694 257.5,90.5 Z"/></g>
<g><path style="opacity:1" fill="#c84b09" d="M 219.5,114.5 C 220.675,114.281 221.675,114.614 222.5,115.5C 225.362,119.733 226.195,124.4 225,129.5C 223.331,131.169 222.498,133.169 222.5,135.5C 225.675,136.091 228.009,135.091 229.5,132.5C 228.615,136.784 225.949,138.284 221.5,137C 220.221,134.502 220.221,132.002 221.5,129.5C 224.468,124.223 223.801,119.223 219.5,114.5 Z"/></g>
<g><path style="opacity:1" fill="#e10d33" d="M 111.5,101.5 C 105.057,105.276 100.39,110.61 97.5,117.5C 95.8395,122.125 94.1729,126.792 92.5,131.5C 91.596,132.209 91.2627,133.209 91.5,134.5C 90.6215,141.677 90.4548,149.01 91,156.5C 89.3968,155.114 88.5634,153.281 88.5,151C 87.7748,145.857 87.4414,140.69 87.5,135.5C 87.3379,133.473 87.5045,131.473 88,129.5C 90.251,123.339 92.751,117.339 95.5,111.5C 95.5,111.167 95.5,110.833 95.5,110.5C 100.51,104.49 106.177,99.1569 112.5,94.5C 114.435,93.8505 116.435,93.5172 118.5,93.5C 118.719,94.675 118.386,95.675 117.5,96.5C 115.059,97.709 113.059,99.3757 111.5,101.5 Z"/></g>
<g><path style="opacity:1" fill="#c93a0a" d="M 149.5,29.5 C 149.334,39.5056 149.5,49.5056 150,59.5C 151.985,64.6323 153.819,69.7989 155.5,75C 154.943,78.8949 153.443,82.3949 151,85.5C 150.667,88.5 150.333,91.5 150,94.5C 149.049,119.208 149.382,143.875 151,168.5C 153.277,172.737 155.777,176.737 158.5,180.5C 158.402,182.937 157.402,184.937 155.5,186.5C 156,186.833 156.5,187.167 157,187.5C 160.746,181.913 165.913,178.579 172.5,177.5C 174.374,177.39 175.874,178.056 177,179.5C 178.677,182.853 180.843,185.853 183.5,188.5C 185.045,189.452 186.712,189.785 188.5,189.5C 188.5,188.167 188.5,186.833 188.5,185.5C 190.845,186.988 191.179,188.988 189.5,191.5C 187.076,191.808 184.743,191.474 182.5,190.5C 181.812,189.145 180.812,188.145 179.5,187.5C 178.222,185.201 176.889,182.868 175.5,180.5C 173.235,179.353 170.902,179.186 168.5,180C 165.667,182.167 162.833,184.333 160,186.5C 158.047,189.255 156.88,192.255 156.5,195.5C 155.883,195.611 155.383,195.944 155,196.5C 154.5,214.497 154.333,232.497 154.5,250.5C 153.338,232.338 153.171,214.005 154,195.5C 155.128,193.655 155.628,191.655 155.5,189.5C 151.474,190.931 149.308,193.931 149,198.5C 148.231,217.52 148.398,236.52 149.5,255.5C 149.167,255.5 148.833,255.5 148.5,255.5C 147.55,236.194 147.217,216.86 147.5,197.5C 147.557,196.391 147.89,195.391 148.5,194.5C 150.822,189.896 153.155,185.23 155.5,180.5C 155.243,178.308 154.243,176.641 152.5,175.5C 150.44,171.376 148.94,167.042 148,162.5C 147.333,138.833 147.333,115.167 148,91.5C 148.838,88.1484 149.671,84.8151 150.5,81.5C 151.338,81.1583 151.672,80.4916 151.5,79.5C 152.94,78.0539 153.607,76.2206 153.5,74C 152.847,70.2019 151.514,66.7019 149.5,63.5C 148.222,52.0262 148.222,40.6928 149.5,29.5 Z"/></g>
<g><path style="opacity:1" fill="#e11e18" d="M 243.5,80.5 C 243.833,80.5 244.167,80.5 244.5,80.5C 250.588,81.5916 254.921,84.925 257.5,90.5C 258.241,94.7694 259.741,98.7694 262,102.5C 263.019,108.74 262.519,114.74 260.5,120.5C 259.883,120.611 259.383,120.944 259,121.5C 258.843,123.995 258.676,126.328 258.5,128.5C 257.354,127.855 256.354,127.022 255.5,126C 251.902,125.846 248.569,124.846 245.5,123C 242.167,122.333 238.833,122.333 235.5,123C 233.68,123.2 232.347,124.034 231.5,125.5C 231.279,128.067 230.612,130.401 229.5,132.5C 228.009,135.091 225.675,136.091 222.5,135.5C 222.498,133.169 223.331,131.169 225,129.5C 226.195,124.4 225.362,119.733 222.5,115.5C 221.675,114.614 220.675,114.281 219.5,114.5C 218.351,114.209 217.684,113.376 217.5,112C 217.8,109.68 219.133,108.513 221.5,108.5C 224.105,109.769 226.438,111.436 228.5,113.5C 229.11,114.391 229.443,115.391 229.5,116.5C 236.034,117.239 242.701,117.906 249.5,118.5C 250.997,119.604 252.664,120.604 254.5,121.5C 255.442,121.392 256.275,121.059 257,120.5C 257.667,113.833 257.667,107.167 257,100.5C 256.275,98.0506 255.275,95.7173 254,93.5C 248.69,90.3839 245.19,86.0505 243.5,80.5 Z"/></g>
<g><path style="opacity:1" fill="#a14c90" d="M 51.5,104.5 C 50.1667,106.833 48.8333,109.167 47.5,111.5C 45.3589,114.472 42.6922,116.972 39.5,119C 33.43,120.85 27.2633,122.016 21,122.5C 19.8354,131.463 19.3354,140.463 19.5,149.5C 18.3343,140.322 18.3343,130.989 19.5,121.5C 27.8809,121.778 35.5476,119.611 42.5,115C 44.9261,110.963 47.9261,107.463 51.5,104.5 Z"/></g>
<g><path style="opacity:1" fill="#5594da" d="M 141.5,8.5 C 143.493,95.9543 144.16,183.621 143.5,271.5C 143.5,272.167 143.5,272.833 143.5,273.5C 142.5,273.5 141.5,273.5 140.5,273.5C 140.5,272.833 140.5,272.167 140.5,271.5C 142.496,213.176 143.163,154.509 142.5,95.5C 142.5,91.5 142.5,87.5 142.5,83.5C 142.831,59.3275 142.498,35.3275 141.5,11.5C 141.158,10.6618 140.492,10.3284 139.5,10.5C 139.5,10.1667 139.5,9.83333 139.5,9.5C 139.842,8.66175 140.508,8.32842 141.5,8.5 Z"/></g>
<g><path style="opacity:1" fill="#5e9aa6" d="M 141.5,8.5 C 142.833,8.5 144.167,8.5 145.5,8.5C 145.5,8.83333 145.5,9.16667 145.5,9.5C 144.833,96.8333 144.167,184.167 143.5,271.5C 144.16,183.621 143.493,95.9543 141.5,8.5 Z"/></g>
<g><path style="opacity:1" fill="#6b87e6" d="M 47.5,111.5 C 46.7814,114.073 45.7814,116.573 44.5,119C 40.7003,121.129 36.7003,122.796 32.5,124C 32.8333,124.333 33.1667,124.667 33.5,125C 31.8659,125.494 30.1992,125.66 28.5,125.5C 28.5,126.5 28.5,127.5 28.5,128.5C 27.1779,128.33 26.0113,128.663 25,129.5C 24.6924,128.692 24.1924,128.025 23.5,127.5C 21.0036,138.118 20.837,148.784 23,159.5C 31.7016,159.74 39.8683,161.907 47.5,166C 49.8635,168.506 51.5302,171.339 52.5,174.5C 49.919,170.24 46.2523,167.574 41.5,166.5C 35.5559,162.582 28.8893,160.748 21.5,161C 20.868,157.73 20.2014,154.563 19.5,151.5C 19.5,150.833 19.5,150.167 19.5,149.5C 19.3354,140.463 19.8354,131.463 21,122.5C 27.2633,122.016 33.43,120.85 39.5,119C 42.6922,116.972 45.3589,114.472 47.5,111.5 Z"/></g>
<g><path style="opacity:1" fill="#aed70d" d="M 248.5,127.5 C 250.96,127.699 253.293,128.365 255.5,129.5C 258.723,132.087 261.39,135.087 263.5,138.5C 264.401,142.316 265.901,145.983 268,149.5C 268.683,156.861 268.517,164.195 267.5,171.5C 267.88,173.698 267.213,175.365 265.5,176.5C 264.833,176.833 264.167,177.167 263.5,177.5C 266.435,168.478 267.268,159.145 266,149.5C 263.056,147.628 261.889,144.961 262.5,141.5C 261.448,141.351 260.448,141.517 259.5,142C 259.619,143.281 259.119,144.448 258,145.5C 257.187,143.564 256.687,141.564 256.5,139.5C 251.677,140.061 247.677,138.561 244.5,135C 242.212,134.178 239.878,133.511 237.5,133C 236.549,132.282 236.383,131.449 237,130.5C 238.255,129.789 239.421,128.956 240.5,128C 238.527,127.505 236.527,127.338 234.5,127.5C 234.771,129.38 234.104,130.713 232.5,131.5C 232.421,130.07 232.754,128.736 233.5,127.5C 238.503,126.334 243.503,126.334 248.5,127.5 Z"/></g>
<g><path style="opacity:1" fill="#d53410" d="M 260.5,120.5 C 260.216,122.415 260.549,124.081 261.5,125.5C 261.238,126.978 261.571,128.311 262.5,129.5C 264.026,129.994 265.359,130.661 266.5,131.5C 265.005,131.415 264.005,132.081 263.5,133.5C 268.859,141.088 271.526,149.588 271.5,159C 270.871,165.195 270.038,171.362 269,177.5C 266.496,179.174 264.996,181.507 264.5,184.5C 261.437,186.051 258.771,188.218 256.5,191C 251.003,194.216 245.337,195.05 239.5,193.5C 252.093,193.657 260.759,187.991 265.5,176.5C 267.213,175.365 267.88,173.698 267.5,171.5C 268.222,171.082 268.722,170.416 269,169.5C 269.667,162.5 269.667,155.5 269,148.5C 267.914,144.654 266.081,141.32 263.5,138.5C 261.39,135.087 258.723,132.087 255.5,129.5C 253.293,128.365 250.96,127.699 248.5,127.5C 247.653,126.034 246.32,125.2 244.5,125C 240.113,124.294 235.78,124.46 231.5,125.5C 232.347,124.034 233.68,123.2 235.5,123C 238.833,122.333 242.167,122.333 245.5,123C 248.569,124.846 251.902,125.846 255.5,126C 256.354,127.022 257.354,127.855 258.5,128.5C 258.676,126.328 258.843,123.995 259,121.5C 259.383,120.944 259.883,120.611 260.5,120.5 Z"/></g>
<g><path style="opacity:1" fill="#ab3a76" d="M 95.5,111.5 C 92.751,117.339 90.251,123.339 88,129.5C 87.5045,131.473 87.3379,133.473 87.5,135.5C 86.4733,141.34 86.4733,147.34 87.5,153.5C 86.7784,153.082 86.2784,152.416 86,151.5C 85.5005,145.175 85.3338,138.842 85.5,132.5C 85.5,132.167 85.5,131.833 85.5,131.5C 87.3996,124.98 90.0663,118.647 93.5,112.5C 93.9569,111.702 94.6236,111.369 95.5,111.5 Z"/></g>
<g><path style="opacity:1" fill="#88b686" d="M 145.5,9.5 C 145.5,38.1667 145.5,66.8333 145.5,95.5C 145.5,116.833 145.5,138.167 145.5,159.5C 145.5,172.5 145.5,185.5 145.5,198.5C 145.5,215.5 145.5,232.5 145.5,249.5C 145.5,257.5 145.5,265.5 145.5,273.5C 144.833,273.5 144.167,273.5 143.5,273.5C 143.5,272.833 143.5,272.167 143.5,271.5C 144.167,184.167 144.833,96.8333 145.5,9.5 Z"/></g>
<g><path style="opacity:1" fill="#cdaf20" d="M 180.5,110.5 C 183.681,111.349 186.348,113.015 188.5,115.5C 189.122,116.627 189.955,117.627 191,118.5C 193.652,126.346 194.318,134.346 193,142.5C 195.414,143.856 197.581,143.522 199.5,141.5C 199.5,142.5 199.5,143.5 199.5,144.5C 196.721,144.721 194.054,144.388 191.5,143.5C 191.821,135.439 191.321,127.439 190,119.5C 186.938,116.268 183.771,113.268 180.5,110.5 Z"/></g>
<g><path style="opacity:1" fill="#e90b2b" d="M 21.5,116.5 C 23.9686,117.317 26.6353,117.817 29.5,118C 26.5,118.333 23.5,118.667 20.5,119C 19.7476,119.671 19.4142,120.504 19.5,121.5C 15.7618,135.301 15.5951,149.301 19,163.5C 23.7367,164.469 28.57,164.803 33.5,164.5C 35.9925,165.774 38.6592,166.44 41.5,166.5C 44.4308,168.568 47.2641,170.901 50,173.5C 50.7162,175.879 51.8828,177.879 53.5,179.5C 54.4419,184.805 54.6086,190.139 54,195.5C 51.6805,200.635 49.1805,205.635 46.5,210.5C 45.1667,210.5 43.8333,210.5 42.5,210.5C 44.1667,207.167 45.8333,203.833 47.5,200.5C 48.1174,200.389 48.6174,200.056 49,199.5C 49.8163,194.316 49.6497,189.316 48.5,184.5C 46.3792,177.378 42.0459,172.045 35.5,168.5C 29.3261,167.45 22.9927,167.45 16.5,168.5C 13.8841,151.178 13.8841,133.844 16.5,116.5C 18.1667,116.5 19.8333,116.5 21.5,116.5 Z"/></g>
<g><path style="opacity:1" fill="#c5c21c" d="M 248.5,127.5 C 243.503,126.334 238.503,126.334 233.5,127.5C 232.754,128.736 232.421,130.07 232.5,131.5C 230.519,138.578 226.352,140.578 220,137.5C 219.833,136.167 219.667,134.833 219.5,133.5C 219.585,131.667 220.252,130.334 221.5,129.5C 220.221,132.002 220.221,134.502 221.5,137C 225.949,138.284 228.615,136.784 229.5,132.5C 230.612,130.401 231.279,128.067 231.5,125.5C 235.78,124.46 240.113,124.294 244.5,125C 246.32,125.2 247.653,126.034 248.5,127.5 Z"/></g>
<g><path style="opacity:1" fill="#ae2658" d="M 92.5,131.5 C 92.4183,138.858 92.7516,146.191 93.5,153.5C 91.7517,147.426 91.085,141.093 91.5,134.5C 91.2627,133.209 91.596,132.209 92.5,131.5 Z"/></g>
<g><path style="opacity:0.004" fill="#fe0000" d="M 10.5,142.5 C 11.8333,143.167 11.8333,143.167 10.5,142.5 Z"/></g>
<g><path style="opacity:0.776" fill="#c92a3b" d="M 31.5,114.5 C 28.6627,116.402 25.3293,117.069 21.5,116.5C 19.8333,116.5 18.1667,116.5 16.5,116.5C 13.8841,133.844 13.8841,151.178 16.5,168.5C 22.9927,167.45 29.3261,167.45 35.5,168.5C 29.0489,168.399 22.7156,168.899 16.5,170C 16,169.5 15.5,169 15,168.5C 11.6912,151.169 11.6912,133.836 15,116.5C 15.6667,115.167 16.6667,114.167 18,113.5C 22.4014,114.467 26.9014,114.8 31.5,114.5 Z"/></g>
<g><path style="opacity:1" fill="#8a71c4" d="M 102.5,112.5 C 99.9572,117.829 97.4572,123.163 95,128.5C 94.2596,139.246 94.9263,149.913 97,160.5C 99.9542,164.075 102.121,168.075 103.5,172.5C 102.357,172.092 101.357,171.425 100.5,170.5C 97.2602,165.045 94.9269,159.378 93.5,153.5C 92.7516,146.191 92.4183,138.858 92.5,131.5C 94.1729,126.792 95.8395,122.125 97.5,117.5C 99.3947,116.027 101.061,114.36 102.5,112.5 Z"/></g>
<g><path style="opacity:1" fill="#bc4005" d="M 154.5,91.5 C 154.333,115.169 154.5,138.836 155,162.5C 155.374,164.491 156.207,166.158 157.5,167.5C 157.833,168.833 158.167,170.167 158.5,171.5C 157.624,171.631 156.957,171.298 156.5,170.5C 155.568,168.205 154.735,165.871 154,163.5C 153.17,139.33 153.337,115.33 154.5,91.5 Z"/></g>
<g><path style="opacity:1" fill="#cfb349" d="M 150.5,81.5 C 149.671,84.8151 148.838,88.1484 148,91.5C 147.333,115.167 147.333,138.833 148,162.5C 148.94,167.042 150.44,171.376 152.5,175.5C 150.467,173.837 148.634,171.837 147,169.5C 146.821,165.975 146.321,162.641 145.5,159.5C 145.5,138.167 145.5,116.833 145.5,95.5C 146.482,92.0381 146.815,88.3714 146.5,84.5C 147.833,83.5 149.167,82.5 150.5,81.5 Z"/></g>
<g><path style="opacity:1" fill="#7b7ddb" d="M 85.5,132.5 C 85.3338,138.842 85.5005,145.175 86,151.5C 86.2784,152.416 86.7784,153.082 87.5,153.5C 89.3533,159.263 91.3533,164.929 93.5,170.5C 93.5,171.833 93.5,173.167 93.5,174.5C 91.2859,170.419 88.7859,166.419 86,162.5C 84.8333,158 83.6667,153.5 82.5,149C 83.9315,143.445 84.9315,137.945 85.5,132.5 Z"/></g>
<g><path style="opacity:1" fill="#c15909" d="M 182.5,162.5 C 182.167,162.5 181.833,162.5 181.5,162.5C 181.5,161.167 181.5,159.833 181.5,158.5C 179.088,158.244 177.421,159.244 176.5,161.5C 175.546,165.491 174.213,169.324 172.5,173C 168.511,175.173 164.511,175.673 160.5,174.5C 164.319,174.395 167.986,173.562 171.5,172C 172.61,168.951 173.277,165.784 173.5,162.5C 174.401,161.71 175.068,160.71 175.5,159.5C 177.186,156.995 179.519,156.162 182.5,157C 183.752,158.828 183.752,160.661 182.5,162.5 Z"/></g>
<g><path style="opacity:0.569" fill="#e9e7e7" d="M 318.5,27.5 C 319.499,105.332 319.833,183.332 319.5,261.5C 326.833,261.5 334.167,261.5 341.5,261.5C 334.24,263.465 326.573,264.132 318.5,263.5C 318.5,184.833 318.5,106.167 318.5,27.5 Z"/></g>
<g><path style="opacity:1" fill="#d2a420" d="M 263.5,138.5 C 266.081,141.32 267.914,144.654 269,148.5C 269.667,155.5 269.667,162.5 269,169.5C 268.722,170.416 268.222,171.082 267.5,171.5C 268.517,164.195 268.683,156.861 268,149.5C 265.901,145.983 264.401,142.316 263.5,138.5 Z"/></g>
<g><path style="opacity:1" fill="#c71a4b" d="M 19.5,121.5 C 18.3343,130.989 18.3343,140.322 19.5,149.5C 19.5,150.167 19.5,150.833 19.5,151.5C 19.2065,155.437 19.5399,159.27 20.5,163C 25.0195,163.175 29.3528,163.675 33.5,164.5C 28.57,164.803 23.7367,164.469 19,163.5C 15.5951,149.301 15.7618,135.301 19.5,121.5 Z"/></g>
<g><path style="opacity:0.796" fill="#cf3235" d="M 261.5,125.5 C 266.965,128.727 270.798,133.394 273,139.5C 279.846,159.122 276.68,176.789 263.5,192.5C 265.312,195.603 266.312,198.936 266.5,202.5C 263.985,198.942 262.319,194.942 261.5,190.5C 262.325,189.614 263.325,189.281 264.5,189.5C 264.5,187.833 264.5,186.167 264.5,184.5C 265.117,184.611 265.617,184.944 266,185.5C 267.49,182.17 269.49,179.17 272,176.5C 274.323,166.626 274.989,156.626 274,146.5C 272.001,141.168 269.501,136.168 266.5,131.5C 265.359,130.661 264.026,129.994 262.5,129.5C 261.571,128.311 261.238,126.978 261.5,125.5 Z"/></g>
<g><path style="opacity:1" fill="#a93f7b" d="M 19.5,151.5 C 20.2014,154.563 20.868,157.73 21.5,161C 28.8893,160.748 35.5559,162.582 41.5,166.5C 38.6592,166.44 35.9925,165.774 33.5,164.5C 29.3528,163.675 25.0195,163.175 20.5,163C 19.5399,159.27 19.2065,155.437 19.5,151.5 Z"/></g>
<g><path style="opacity:1" fill="#ed0a1e" d="M 266.5,131.5 C 269.501,136.168 272.001,141.168 274,146.5C 274.989,156.626 274.323,166.626 272,176.5C 269.49,179.17 267.49,182.17 266,185.5C 265.617,184.944 265.117,184.611 264.5,184.5C 264.996,181.507 266.496,179.174 269,177.5C 270.038,171.362 270.871,165.195 271.5,159C 271.526,149.588 268.859,141.088 263.5,133.5C 264.005,132.081 265.005,131.415 266.5,131.5 Z"/></g>
<g><path style="opacity:1" fill="#9e4e8b" d="M 41.5,166.5 C 46.2523,167.574 49.919,170.24 52.5,174.5C 53.3007,176.042 53.634,177.708 53.5,179.5C 51.8828,177.879 50.7162,175.879 50,173.5C 47.2641,170.901 44.4308,168.568 41.5,166.5 Z"/></g>
<g><path style="opacity:1" fill="#b3d314" d="M 157.5,88.5 C 157.641,112.813 157.808,137.146 158,161.5C 159.15,164.768 159.984,168.101 160.5,171.5C 163.609,171.345 166.609,170.678 169.5,169.5C 166.943,169.218 164.277,169.051 161.5,169C 162.744,166.697 164.411,166.197 166.5,167.5C 168.592,165.395 170.925,163.728 173.5,162.5C 173.277,165.784 172.61,168.951 171.5,172C 167.986,173.562 164.319,174.395 160.5,174.5C 160.573,172.973 159.906,171.973 158.5,171.5C 158.167,170.167 157.833,168.833 157.5,167.5C 156.189,141.027 156.189,114.694 157.5,88.5 Z"/></g>
<g><path style="opacity:1" fill="#d39922" d="M 181.5,162.5 C 181.833,162.5 182.167,162.5 182.5,162.5C 181.8,166.798 181.467,171.131 181.5,175.5C 180.264,171.299 180.264,166.965 181.5,162.5 Z"/></g>
<g><path style="opacity:1" fill="#d8153b" d="M 91.5,134.5 C 91.085,141.093 91.7517,147.426 93.5,153.5C 94.9269,159.378 97.2602,165.045 100.5,170.5C 101.357,171.425 102.357,172.092 103.5,172.5C 105.115,175.45 107.115,178.116 109.5,180.5C 116.755,187.259 125.422,190.926 135.5,191.5C 135.833,191.5 136.167,191.5 136.5,191.5C 137.968,192.779 138.635,194.446 138.5,196.5C 132.016,196.252 125.683,195.252 119.5,193.5C 115.389,192.247 111.723,190.247 108.5,187.5C 103.099,182.105 98.0992,176.438 93.5,170.5C 91.3533,164.929 89.3533,159.263 87.5,153.5C 86.4733,147.34 86.4733,141.34 87.5,135.5C 87.4414,140.69 87.7748,145.857 88.5,151C 88.5634,153.281 89.3968,155.114 91,156.5C 90.4548,149.01 90.6215,141.677 91.5,134.5 Z"/></g>
<g><path style="opacity:0.424" fill="#e1dede" d="M 608.5,162.5 C 602.648,162.051 596.981,162.551 591.5,164C 591.582,180.346 591.582,196.846 591.5,213.5C 591.68,214.554 592.013,215.554 592.5,216.5C 597.802,217.663 603.136,217.829 608.5,217C 611.746,215.258 614.079,212.758 615.5,209.5C 614.93,213.912 612.597,217.078 608.5,219C 602.584,219.807 596.75,219.641 591,218.5C 590.5,199.503 590.333,180.503 590.5,161.5C 596.69,161.177 602.69,161.51 608.5,162.5 Z"/></g>
<g><path style="opacity:1" fill="#bdca18" d="M 234.5,173.5 C 234.5,172.167 234.5,170.833 234.5,169.5C 234.5,168.833 234.5,168.167 234.5,167.5C 236.332,164.046 235.332,161.713 231.5,160.5C 230.833,160.833 230.167,161.167 229.5,161.5C 227.889,164.22 227.056,167.22 227,170.5C 222.13,176.817 215.63,179.317 207.5,178C 206.594,179.699 206.261,181.533 206.5,183.5C 207.5,183.5 208.5,183.5 209.5,183.5C 210.209,184.404 211.209,184.737 212.5,184.5C 215.305,185.319 218.305,185.819 221.5,186C 224.293,189.105 226.96,192.272 229.5,195.5C 226.053,193.603 222.72,191.437 219.5,189C 211.495,190.135 206.161,186.968 203.5,179.5C 203.608,178.558 203.941,177.725 204.5,177C 209.401,175.675 214.401,175.175 219.5,175.5C 219.5,172.167 221.167,170.5 224.5,170.5C 225.114,166.865 225.448,163.198 225.5,159.5C 230.179,159.334 234.845,159.501 239.5,160C 238.422,160.674 237.755,161.674 237.5,163C 237.879,165.092 238.546,167.092 239.5,169C 238.99,170.826 238.156,170.993 237,169.5C 236.8,171.32 235.966,172.653 234.5,173.5 Z"/></g>
<g><path style="opacity:1" fill="#a7d726" d="M 145.5,159.5 C 146.321,162.641 146.821,165.975 147,169.5C 148.634,171.837 150.467,173.837 152.5,175.5C 152.894,176.967 153.227,178.467 153.5,180C 151.063,184.59 149.397,189.424 148.5,194.5C 147.89,195.391 147.557,196.391 147.5,197.5C 146.833,197.833 146.167,198.167 145.5,198.5C 145.5,185.5 145.5,172.5 145.5,159.5 Z"/></g>
<g><path style="opacity:1" fill="#a14e8e" d="M 93.5,170.5 C 98.0992,176.438 103.099,182.105 108.5,187.5C 103.174,183.504 98.1737,179.171 93.5,174.5C 93.5,173.167 93.5,171.833 93.5,170.5 Z"/></g>
<g><path style="opacity:1" fill="#bfc21b" d="M 189.5,191.5 C 191.179,188.988 190.845,186.988 188.5,185.5C 184.576,183.248 182.243,179.915 181.5,175.5C 181.467,171.131 181.8,166.798 182.5,162.5C 183.752,160.661 183.752,158.828 182.5,157C 179.519,156.162 177.186,156.995 175.5,159.5C 176.543,155.315 179.209,153.815 183.5,155C 184.126,155.75 184.626,156.584 185,157.5C 183.535,163.3 182.869,169.3 183,175.5C 183.219,176.938 183.719,178.271 184.5,179.5C 189.738,181.53 192.238,185.197 192,190.5C 191.329,191.252 190.496,191.586 189.5,191.5 Z"/></g>
<g><path style="opacity:1" fill="#cbb220" d="M 179.5,187.5 C 177.447,186.466 175.78,184.966 174.5,183C 171.406,182.348 168.406,182.682 165.5,184C 162.255,187.733 159.255,191.566 156.5,195.5C 156.88,192.255 158.047,189.255 160,186.5C 162.833,184.333 165.667,182.167 168.5,180C 170.902,179.186 173.235,179.353 175.5,180.5C 176.889,182.868 178.222,185.201 179.5,187.5 Z"/></g>
<g><path style="opacity:1" fill="#9369b4" d="M 109.5,180.5 C 112.216,180.678 114.883,181.178 117.5,182C 120.594,184.619 123.927,186.952 127.5,189C 130.522,189.098 133.189,189.932 135.5,191.5C 125.422,190.926 116.755,187.259 109.5,180.5 Z"/></g>
<g><path style="opacity:1" fill="#e51718" d="M 234.5,167.5 C 234.5,168.167 234.5,168.833 234.5,169.5C 232.528,173.444 230.528,177.444 228.5,181.5C 230.804,186.792 234.47,190.792 239.5,193.5C 245.337,195.05 251.003,194.216 256.5,191C 258.771,188.218 261.437,186.051 264.5,184.5C 264.5,186.167 264.5,187.833 264.5,189.5C 263.325,189.281 262.325,189.614 261.5,190.5C 262.319,194.942 263.985,198.942 266.5,202.5C 266.666,206.846 266.499,211.179 266,215.5C 265.588,217.997 264.422,219.997 262.5,221.5C 262.137,216.214 261.97,210.88 262,205.5C 261.617,204.944 261.117,204.611 260.5,204.5C 259.897,202.321 259.23,200.154 258.5,198C 256.613,197.22 254.946,197.387 253.5,198.5C 240.269,201.623 230.603,197.289 224.5,185.5C 220.555,184.509 216.555,184.176 212.5,184.5C 211.209,184.737 210.209,184.404 209.5,183.5C 208.766,182.292 208.433,180.959 208.5,179.5C 214.224,180.168 219.557,179.168 224.5,176.5C 225.415,174.082 226.915,172.082 229,170.5C 229.226,167.905 229.726,165.405 230.5,163C 233.93,162.362 235.263,163.862 234.5,167.5 Z"/></g>
<g><path style="opacity:1" fill="#cead22" d="M 152.5,175.5 C 154.243,176.641 155.243,178.308 155.5,180.5C 153.155,185.23 150.822,189.896 148.5,194.5C 149.397,189.424 151.063,184.59 153.5,180C 153.227,178.467 152.894,176.967 152.5,175.5 Z"/></g>
<g><path style="opacity:1" fill="#a5dd04" d="M 198.5,84.5 C 201.704,92.4202 201.038,99.9202 196.5,107C 193.967,106.389 191.3,105.889 188.5,105.5C 184.087,100.196 178.42,98.3631 171.5,100C 170.196,100.804 169.529,101.971 169.5,103.5C 171.108,108.762 174.775,111.095 180.5,110.5C 183.771,113.268 186.938,116.268 190,119.5C 191.321,127.439 191.821,135.439 191.5,143.5C 191.5,144.5 191.5,145.5 191.5,146.5C 194.5,146.5 197.5,146.5 200.5,146.5C 202.162,138.365 202.996,130.032 203,121.5C 203.667,120.833 204.333,120.167 205,119.5C 210.264,124.666 210.764,123.999 206.5,117.5C 207.5,116.833 208.5,116.167 209.5,115.5C 208.089,113.983 208.256,112.649 210,111.5C 211.584,116.36 213.584,121.026 216,125.5C 216.87,124.892 217.37,124.059 217.5,123C 215.87,120.572 216.203,118.739 218.5,117.5C 219.458,118.962 220.624,120.295 222,121.5C 222.43,124.192 222.263,126.859 221.5,129.5C 220.252,130.334 219.585,131.667 219.5,133.5C 219.667,134.833 219.833,136.167 220,137.5C 226.352,140.578 230.519,138.578 232.5,131.5C 234.104,130.713 234.771,129.38 234.5,127.5C 236.527,127.338 238.527,127.505 240.5,128C 239.421,128.956 238.255,129.789 237,130.5C 236.383,131.449 236.549,132.282 237.5,133C 239.878,133.511 242.212,134.178 244.5,135C 247.677,138.561 251.677,140.061 256.5,139.5C 256.687,141.564 257.187,143.564 258,145.5C 259.119,144.448 259.619,143.281 259.5,142C 260.448,141.517 261.448,141.351 262.5,141.5C 261.889,144.961 263.056,147.628 266,149.5C 267.268,159.145 266.435,168.478 263.5,177.5C 258.659,188.193 250.325,192.36 238.5,190C 235.154,187.988 232.488,185.321 230.5,182C 232.281,179.277 233.614,176.444 234.5,173.5C 235.966,172.653 236.8,171.32 237,169.5C 238.156,170.993 238.99,170.826 239.5,169C 238.546,167.092 237.879,165.092 237.5,163C 237.755,161.674 238.422,160.674 239.5,160C 234.845,159.501 230.179,159.334 225.5,159.5C 225.448,163.198 225.114,166.865 224.5,170.5C 221.167,170.5 219.5,172.167 219.5,175.5C 214.401,175.175 209.401,175.675 204.5,177C 203.941,177.725 203.608,178.558 203.5,179.5C 206.161,186.968 211.495,190.135 219.5,189C 222.72,191.437 226.053,193.603 229.5,195.5C 229.511,197.017 230.177,198.184 231.5,199C 239.616,203.008 247.949,203.508 256.5,200.5C 257.991,208.057 257.324,215.39 254.5,222.5C 253.5,222.5 252.5,222.5 251.5,222.5C 251.5,224.5 251.5,226.5 251.5,228.5C 249.278,228.822 247.444,228.155 246,226.5C 246.046,228.313 245.88,229.979 245.5,231.5C 241.893,232.489 238.226,232.823 234.5,232.5C 234.421,231.07 234.754,229.736 235.5,228.5C 233.955,227.548 232.288,227.215 230.5,227.5C 230.799,225.396 230.466,223.396 229.5,221.5C 227.79,219.292 226.29,216.959 225,214.5C 223.67,213.418 222.17,212.751 220.5,212.5C 218.488,208.323 215.322,205.323 211,203.5C 210.667,200.833 210.333,198.167 210,195.5C 209.8,193.68 208.966,192.347 207.5,191.5C 205.166,187.234 202.166,186.568 198.5,189.5C 197.566,190.568 197.232,191.901 197.5,193.5C 198.54,197.78 198.706,202.113 198,206.5C 197.581,205.328 196.915,204.328 196,203.5C 195.833,204 195.667,204.5 195.5,205C 196.856,206.567 197.523,208.4 197.5,210.5C 196.167,210.5 194.833,210.5 193.5,210.5C 193.5,211.5 193.5,212.5 193.5,213.5C 192.178,213.67 191.011,213.337 190,212.5C 188.892,216.086 188.392,219.753 188.5,223.5C 196.544,226.64 202.211,224.307 205.5,216.5C 210.952,216.144 214.785,218.477 217,223.5C 218.015,227.765 218.515,232.098 218.5,236.5C 218.438,241.557 217.438,246.224 215.5,250.5C 215.167,251.167 214.833,251.833 214.5,252.5C 208.835,255.144 202.835,256.144 196.5,255.5C 196.666,251.486 196.499,247.486 196,243.5C 192.944,240.994 189.777,240.994 186.5,243.5C 185.509,247.445 185.176,251.445 185.5,255.5C 182.589,257.562 179.756,259.896 177,262.5C 166.249,266.059 159.582,262.392 157,251.5C 156.5,232.836 156.333,214.17 156.5,195.5C 159.255,191.566 162.255,187.733 165.5,184C 168.406,182.682 171.406,182.348 174.5,183C 175.78,184.966 177.447,186.466 179.5,187.5C 180.812,188.145 181.812,189.145 182.5,190.5C 184.743,191.474 187.076,191.808 189.5,191.5C 190.496,191.586 191.329,191.252 192,190.5C 192.238,185.197 189.738,181.53 184.5,179.5C 183.719,178.271 183.219,176.938 183,175.5C 182.869,169.3 183.535,163.3 185,157.5C 184.626,156.584 184.126,155.75 183.5,155C 179.209,153.815 176.543,155.315 175.5,159.5C 175.068,160.71 174.401,161.71 173.5,162.5C 170.925,163.728 168.592,165.395 166.5,167.5C 164.411,166.197 162.744,166.697 161.5,169C 164.277,169.051 166.943,169.218 169.5,169.5C 166.609,170.678 163.609,171.345 160.5,171.5C 159.984,168.101 159.15,164.768 158,161.5C 157.808,137.146 157.641,112.813 157.5,88.5C 159.532,87.9522 160.532,86.6188 160.5,84.5C 165.382,86.0422 170.382,87.0422 175.5,87.5C 179.979,87.9144 183.979,86.9144 187.5,84.5C 190.597,82.6199 193.93,81.2865 197.5,80.5C 197.433,81.9587 197.766,83.2921 198.5,84.5 Z"/></g>
<g><path style="opacity:1" fill="#c4550e" d="M 234.5,167.5 C 235.263,163.862 233.93,162.362 230.5,163C 229.726,165.405 229.226,167.905 229,170.5C 226.915,172.082 225.415,174.082 224.5,176.5C 219.557,179.168 214.224,180.168 208.5,179.5C 208.433,180.959 208.766,182.292 209.5,183.5C 208.5,183.5 207.5,183.5 206.5,183.5C 206.261,181.533 206.594,179.699 207.5,178C 215.63,179.317 222.13,176.817 227,170.5C 227.056,167.22 227.889,164.22 229.5,161.5C 230.167,161.167 230.833,160.833 231.5,160.5C 235.332,161.713 236.332,164.046 234.5,167.5 Z"/></g>
<g><path style="opacity:1" fill="#c87012" d="M 202.5,115.5 C 201.878,116.627 201.045,117.627 200,118.5C 199.235,120.066 199.402,121.399 200.5,122.5C 200.822,128.358 200.489,134.025 199.5,139.5C 199.666,134.821 199.499,130.155 199,125.5C 196.256,120.667 197.423,117.334 202.5,115.5 Z"/></g>
<g><path style="opacity:1" fill="#b12c61" d="M 53.5,179.5 C 54.6737,180.514 55.3404,181.847 55.5,183.5C 57.9691,194.608 54.9691,203.608 46.5,210.5C 49.1805,205.635 51.6805,200.635 54,195.5C 54.6086,190.139 54.4419,184.805 53.5,179.5 Z"/></g>
<g><path style="opacity:1" fill="#d0a221" d="M 198.5,189.5 C 198.263,190.791 198.596,191.791 199.5,192.5C 199.932,193.71 200.599,194.71 201.5,195.5C 201.817,199.702 201.483,203.702 200.5,207.5C 200.665,204.15 200.498,200.817 200,197.5C 199.8,195.68 198.966,194.347 197.5,193.5C 197.232,191.901 197.566,190.568 198.5,189.5 Z"/></g>
<g><path style="opacity:1" fill="#c9ba1f" d="M 234.5,169.5 C 234.5,170.833 234.5,172.167 234.5,173.5C 233.614,176.444 232.281,179.277 230.5,182C 232.488,185.321 235.154,187.988 238.5,190C 250.325,192.36 258.659,188.193 263.5,177.5C 264.167,177.167 264.833,176.833 265.5,176.5C 260.759,187.991 252.093,193.657 239.5,193.5C 234.47,190.792 230.804,186.792 228.5,181.5C 230.528,177.444 232.528,173.444 234.5,169.5 Z"/></g>
<g><path style="opacity:1" fill="#c34d06" d="M 207.5,191.5 C 208.2,195.798 208.533,200.131 208.5,204.5C 207.015,199.184 205.348,193.851 203.5,188.5C 200.5,188.167 199.167,189.5 199.5,192.5C 198.596,191.791 198.263,190.791 198.5,189.5C 202.166,186.568 205.166,187.234 207.5,191.5 Z"/></g>
<g><path style="opacity:1" fill="#9e4082" d="M 136.5,191.5 C 137.833,191.5 139.167,191.5 140.5,191.5C 140.662,193.527 140.495,195.527 140,197.5C 132.638,198.784 125.805,197.45 119.5,193.5C 125.683,195.252 132.016,196.252 138.5,196.5C 138.635,194.446 137.968,192.779 136.5,191.5 Z"/></g>
<g><path style="opacity:1" fill="#c94e09" d="M 212.5,184.5 C 216.555,184.176 220.555,184.509 224.5,185.5C 230.603,197.289 240.269,201.623 253.5,198.5C 251.316,200.954 248.483,201.954 245,201.5C 239.418,200.365 234.251,198.365 229.5,195.5C 226.96,192.272 224.293,189.105 221.5,186C 218.305,185.819 215.305,185.319 212.5,184.5 Z"/></g>
<g><path style="opacity:0.306" fill="#b73d4a" d="M 48.5,184.5 C 49.6497,189.316 49.8163,194.316 49,199.5C 48.6174,200.056 48.1174,200.389 47.5,200.5C 48.4002,195.228 48.7335,189.895 48.5,184.5 Z"/></g>
<g><path style="opacity:0.004" fill="#000000" d="M 450.5,201.5 C 451.833,202.167 451.833,202.167 450.5,201.5 Z"/></g>
<g><path style="opacity:1" fill="#c7be20" d="M 207.5,191.5 C 208.966,192.347 209.8,193.68 210,195.5C 210.333,198.167 210.667,200.833 211,203.5C 215.322,205.323 218.488,208.323 220.5,212.5C 217.266,210.313 213.933,208.313 210.5,206.5C 209.5,206.167 208.833,205.5 208.5,204.5C 208.533,200.131 208.2,195.798 207.5,191.5 Z"/></g>
<g><path style="opacity:1" fill="#d02442" d="M 47.5,200.5 C 45.8333,203.833 44.1667,207.167 42.5,210.5C 43.8333,210.5 45.1667,210.5 46.5,210.5C 44.8627,211.974 43.8627,213.808 43.5,216C 43.3866,217.699 44.0532,218.866 45.5,219.5C 46.6005,220.605 47.2671,221.938 47.5,223.5C 45.4862,223.608 43.8195,222.942 42.5,221.5C 43.7348,226.296 45.7348,230.63 48.5,234.5C 42.7531,228.416 37.7531,221.749 33.5,214.5C 33.6667,213.833 33.8333,213.167 34,212.5C 39.272,209.295 43.772,205.295 47.5,200.5 Z"/></g>
<g><path style="opacity:1" fill="#bccb17" d="M 229.5,195.5 C 234.251,198.365 239.418,200.365 245,201.5C 248.483,201.954 251.316,200.954 253.5,198.5C 254.833,198.5 256.167,198.5 257.5,198.5C 258.768,205.496 258.768,212.496 257.5,219.5C 256.402,224.589 253.735,228.589 249.5,231.5C 243.176,234.72 236.509,235.387 229.5,233.5C 227.889,225.894 224.889,218.894 220.5,212.5C 222.17,212.751 223.67,213.418 225,214.5C 226.29,216.959 227.79,219.292 229.5,221.5C 230.466,223.396 230.799,225.396 230.5,227.5C 232.288,227.215 233.955,227.548 235.5,228.5C 234.754,229.736 234.421,231.07 234.5,232.5C 238.226,232.823 241.893,232.489 245.5,231.5C 245.88,229.979 246.046,228.313 246,226.5C 247.444,228.155 249.278,228.822 251.5,228.5C 251.5,226.5 251.5,224.5 251.5,222.5C 252.5,222.5 253.5,222.5 254.5,222.5C 257.324,215.39 257.991,208.057 256.5,200.5C 247.949,203.508 239.616,203.008 231.5,199C 230.177,198.184 229.511,197.017 229.5,195.5 Z"/></g>
<g><path style="opacity:1" fill="#e91219" d="M 208.5,204.5 C 208.833,205.5 209.5,206.167 210.5,206.5C 212.162,209.181 214.495,211.181 217.5,212.5C 220.45,217.553 219.117,218.886 213.5,216.5C 212.102,214.101 210.102,212.434 207.5,211.5C 204.148,214.658 200.314,217.324 196,219.5C 194.743,219.15 194.409,218.483 195,217.5C 197.145,214.834 199.645,212.834 202.5,211.5C 203.422,206.528 203.588,201.528 203,196.5C 202.617,195.944 202.117,195.611 201.5,195.5C 200.599,194.71 199.932,193.71 199.5,192.5C 199.167,189.5 200.5,188.167 203.5,188.5C 205.348,193.851 207.015,199.184 208.5,204.5 Z"/></g>
<g><path style="opacity:1" fill="#cfb024" d="M 253.5,198.5 C 254.946,197.387 256.613,197.22 258.5,198C 259.23,200.154 259.897,202.321 260.5,204.5C 261.018,209.939 260.018,214.939 257.5,219.5C 258.768,212.496 258.768,205.496 257.5,198.5C 256.167,198.5 254.833,198.5 253.5,198.5 Z"/></g>
<g><path style="opacity:1" fill="#8873c4" d="M 55.5,183.5 C 56.1174,183.611 56.6174,183.944 57,184.5C 59.4194,196.081 56.086,205.414 47,212.5C 45.7978,214.677 45.2978,217.011 45.5,219.5C 44.0532,218.866 43.3866,217.699 43.5,216C 43.8627,213.808 44.8627,211.974 46.5,210.5C 54.9691,203.608 57.9691,194.608 55.5,183.5 Z"/></g>
<g><path style="opacity:1" fill="#d0a94c" d="M 147.5,197.5 C 147.217,216.86 147.55,236.194 148.5,255.5C 147.203,253.629 146.203,251.629 145.5,249.5C 145.5,232.5 145.5,215.5 145.5,198.5C 146.167,198.167 146.833,197.833 147.5,197.5 Z"/></g>
<g><path style="opacity:1" fill="#cd410a" d="M 201.5,195.5 C 202.117,195.611 202.617,195.944 203,196.5C 203.588,201.528 203.422,206.528 202.5,211.5C 199.645,212.834 197.145,214.834 195,217.5C 194.409,218.483 194.743,219.15 196,219.5C 200.314,217.324 204.148,214.658 207.5,211.5C 210.102,212.434 212.102,214.101 213.5,216.5C 211.844,215.854 210.177,215.187 208.5,214.5C 206.962,214.453 205.962,215.12 205.5,216.5C 202.37,217.572 199.704,219.406 197.5,222C 192.9,223.583 191.066,222.083 192,217.5C 196.168,215.175 199.002,211.842 200.5,207.5C 201.483,203.702 201.817,199.702 201.5,195.5 Z"/></g>
<g><path style="opacity:1" fill="#f20626" d="M 42.5,221.5 C 41.5,221.5 40.5,221.5 39.5,221.5C 39.6038,218.91 38.9371,216.577 37.5,214.5C 37.859,211.718 39.1923,211.052 41.5,212.5C 41.0133,213.446 40.6799,214.446 40.5,215.5C 41.7545,217.334 42.4211,219.334 42.5,221.5 Z"/></g>
<g><path style="opacity:1" fill="#c5b91e" d="M 156.5,195.5 C 156.333,214.17 156.5,232.836 157,251.5C 159.582,262.392 166.249,266.059 177,262.5C 179.756,259.896 182.589,257.562 185.5,255.5C 183.861,260.609 180.528,264.109 175.5,266C 167.962,267.657 161.962,265.491 157.5,259.5C 156.345,256.543 155.345,253.543 154.5,250.5C 154.333,232.497 154.5,214.497 155,196.5C 155.383,195.944 155.883,195.611 156.5,195.5 Z"/></g>
<g><path style="opacity:1" fill="#b7cd15" d="M 197.5,193.5 C 198.966,194.347 199.8,195.68 200,197.5C 200.498,200.817 200.665,204.15 200.5,207.5C 199.002,211.842 196.168,215.175 192,217.5C 191.066,222.083 192.9,223.583 197.5,222C 199.704,219.406 202.37,217.572 205.5,216.5C 202.211,224.307 196.544,226.64 188.5,223.5C 188.392,219.753 188.892,216.086 190,212.5C 191.011,213.337 192.178,213.67 193.5,213.5C 193.5,212.5 193.5,211.5 193.5,210.5C 194.833,210.5 196.167,210.5 197.5,210.5C 197.523,208.4 196.856,206.567 195.5,205C 195.667,204.5 195.833,204 196,203.5C 196.915,204.328 197.581,205.328 198,206.5C 198.706,202.113 198.54,197.78 197.5,193.5 Z"/></g>
<g><path style="opacity:0.755" fill="#c9c6c5" d="M 744.5,219.5 C 734.833,219.5 725.167,219.5 715.5,219.5C 715.435,222.428 714.768,225.095 713.5,227.5C 713.616,224.14 713.949,220.807 714.5,217.5C 724.855,217.168 735.188,217.501 745.5,218.5C 745.376,219.107 745.043,219.44 744.5,219.5 Z"/></g>
<g><path style="opacity:1" fill="#da2a20" d="M 266.5,202.5 C 269.814,219.374 263.814,231.874 248.5,240C 242.723,241.644 237.057,241.811 231.5,240.5C 234.85,240.665 238.183,240.498 241.5,240C 239.956,239.71 238.623,239.044 237.5,238C 240.179,237.566 242.846,237.732 245.5,238.5C 246.5,238.167 247.5,237.833 248.5,237.5C 248.376,236.893 248.043,236.56 247.5,236.5C 247.392,234.486 248.058,232.82 249.5,231.5C 253.735,228.589 256.402,224.589 257.5,219.5C 260.018,214.939 261.018,209.939 260.5,204.5C 261.117,204.611 261.617,204.944 262,205.5C 261.97,210.88 262.137,216.214 262.5,221.5C 264.422,219.997 265.588,217.997 266,215.5C 266.499,211.179 266.666,206.846 266.5,202.5 Z"/></g>
<g><path style="opacity:1" fill="#ae326b" d="M 47.5,223.5 C 53.1667,228.5 58.5,233.833 63.5,239.5C 57.1667,235.167 51.8333,229.833 47.5,223.5 Z"/></g>
<g><path style="opacity:0.004" fill="#000000" d="M 0.5,228.5 C 1.83333,229.167 1.83333,229.167 0.5,228.5 Z"/></g>
<g><path style="opacity:1" fill="#8e66b2" d="M 107.5,235.5 C 106.833,235.5 106.167,235.5 105.5,235.5C 104.251,233.864 102.584,232.697 100.5,232C 96.5,231.333 92.5,231.333 88.5,232C 87.2625,232.232 86.2625,232.732 85.5,233.5C 84.8333,233.5 84.1667,233.5 83.5,233.5C 84.347,232.034 85.6803,231.2 87.5,231C 90.5982,230.082 93.7649,229.582 97,229.5C 102.401,228.651 105.901,230.651 107.5,235.5 Z"/></g>
<g><path style="opacity:1" fill="#e5102f" d="M 42.5,221.5 C 43.8195,222.942 45.4862,223.608 47.5,223.5C 51.8333,229.833 57.1667,235.167 63.5,239.5C 64.8333,241.167 66.1667,242.833 67.5,244.5C 69.6074,245.468 71.9407,245.802 74.5,245.5C 74.7997,248.244 73.633,249.911 71,250.5C 68.7182,249.71 66.5516,248.71 64.5,247.5C 58.5813,243.917 53.248,239.584 48.5,234.5C 45.7348,230.63 43.7348,226.296 42.5,221.5 Z"/></g>
<g><path style="opacity:1" fill="#cd1548" d="M 105.5,235.5 C 99.0124,233.676 92.3457,233.009 85.5,233.5C 86.2625,232.732 87.2625,232.232 88.5,232C 92.5,231.333 96.5,231.333 100.5,232C 102.584,232.697 104.251,233.864 105.5,235.5 Z"/></g>
<g><path style="opacity:1" fill="#c5c01f" d="M 213.5,216.5 C 221.847,225.49 223.68,235.824 219,247.5C 217.961,248.71 216.794,249.71 215.5,250.5C 217.438,246.224 218.438,241.557 218.5,236.5C 218.515,232.098 218.015,227.765 217,223.5C 214.785,218.477 210.952,216.144 205.5,216.5C 205.962,215.12 206.962,214.453 208.5,214.5C 210.177,215.187 211.844,215.854 213.5,216.5 Z"/></g>
<g><path style="opacity:1" fill="#aa5393" d="M 63.5,239.5 C 66.2153,241.123 69.2153,241.79 72.5,241.5C 71.656,243.759 69.9893,244.759 67.5,244.5C 66.1667,242.833 64.8333,241.167 63.5,239.5 Z"/></g>
<g><path style="opacity:1" fill="#df1933" d="M 83.5,233.5 C 84.1667,233.5 84.8333,233.5 85.5,233.5C 92.3457,233.009 99.0124,233.676 105.5,235.5C 106.167,235.5 106.833,235.5 107.5,235.5C 108.347,236.966 109.68,237.8 111.5,238C 112.977,239.812 114.31,241.645 115.5,243.5C 118.93,250.329 120.43,257.663 120,265.5C 122.826,267.34 125.993,268.006 129.5,267.5C 132.249,267.274 134.916,267.607 137.5,268.5C 138.666,270.167 138.666,271.834 137.5,273.5C 130.918,273.844 124.584,273.177 118.5,271.5C 124.5,271.833 130.5,272.167 136.5,272.5C 136.5,271.5 136.5,270.5 136.5,269.5C 129.825,268.893 123.158,268.227 116.5,267.5C 116.433,268.959 116.766,270.292 117.5,271.5C 115.405,271.24 114.072,270.074 113.5,268C 117.948,255.756 114.615,246.423 103.5,240C 90.69,235.101 81.0233,238.601 74.5,250.5C 70.2862,253.084 66.9529,252.084 64.5,247.5C 66.5516,248.71 68.7182,249.71 71,250.5C 73.633,249.911 74.7997,248.244 74.5,245.5C 71.9407,245.802 69.6074,245.468 67.5,244.5C 69.9893,244.759 71.656,243.759 72.5,241.5C 75.6267,238.102 79.2934,235.435 83.5,233.5 Z"/></g>
<g><path style="opacity:1" fill="#a04688" d="M 107.5,235.5 C 113.02,236.682 116.686,240.015 118.5,245.5C 117.5,244.833 116.5,244.167 115.5,243.5C 114.31,241.645 112.977,239.812 111.5,238C 109.68,237.8 108.347,236.966 107.5,235.5 Z"/></g>
<g><path style="opacity:1" fill="#c3c01d" d="M 214.5,252.5 C 213.167,253.833 211.833,255.167 210.5,256.5C 205.144,257.704 199.811,257.704 194.5,256.5C 194.5,252.5 194.5,248.5 194.5,244.5C 191.956,244.104 189.789,244.771 188,246.5C 187.943,249.851 187.109,252.851 185.5,255.5C 185.176,251.445 185.509,247.445 186.5,243.5C 189.777,240.994 192.944,240.994 196,243.5C 196.499,247.486 196.666,251.486 196.5,255.5C 202.835,256.144 208.835,255.144 214.5,252.5 Z"/></g>
<g><path style="opacity:1" fill="#be1f52" d="M 115.5,243.5 C 116.5,244.167 117.5,244.833 118.5,245.5C 118.796,247.403 119.463,249.07 120.5,250.5C 120.334,255.179 120.501,259.845 121,264.5C 121.383,265.056 121.883,265.389 122.5,265.5C 124.833,266.167 127.167,266.833 129.5,267.5C 125.993,268.006 122.826,267.34 120,265.5C 120.43,257.663 118.93,250.329 115.5,243.5 Z"/></g>
<g><path style="opacity:1" fill="#cf3c0d" d="M 210.5,206.5 C 213.933,208.313 217.266,210.313 220.5,212.5C 224.889,218.894 227.889,225.894 229.5,233.5C 236.509,235.387 243.176,234.72 249.5,231.5C 248.058,232.82 247.392,234.486 247.5,236.5C 241.423,236.804 235.423,236.304 229.5,235C 226.968,231.578 225.301,227.745 224.5,223.5C 223.719,222.263 222.719,221.263 221.5,220.5C 220.396,221.631 220.729,222.465 222.5,223C 222.407,229.736 222.24,236.57 222,243.5C 220.818,250.332 216.985,254.666 210.5,256.5C 211.833,255.167 213.167,253.833 214.5,252.5C 214.833,251.833 215.167,251.167 215.5,250.5C 216.794,249.71 217.961,248.71 219,247.5C 223.68,235.824 221.847,225.49 213.5,216.5C 219.117,218.886 220.45,217.553 217.5,212.5C 214.495,211.181 212.162,209.181 210.5,206.5 Z"/></g>
<g><path style="opacity:1" fill="#9b65ae" d="M 120.5,250.5 C 121.222,250.918 121.722,251.584 122,252.5C 122.499,256.486 122.666,260.486 122.5,264.5C 123.791,264.263 124.791,264.596 125.5,265.5C 124.5,265.5 123.5,265.5 122.5,265.5C 121.883,265.389 121.383,265.056 121,264.5C 120.501,259.845 120.334,255.179 120.5,250.5 Z"/></g>
<g><path style="opacity:1" fill="#e21515" d="M 154.5,250.5 C 155.345,253.543 156.345,256.543 157.5,259.5C 157.357,261.262 157.691,262.929 158.5,264.5C 157.635,265.583 156.635,265.749 155.5,265C 153.863,261.549 151.863,258.382 149.5,255.5C 148.398,236.52 148.231,217.52 149,198.5C 149.308,193.931 151.474,190.931 155.5,189.5C 155.628,191.655 155.128,193.655 154,195.5C 153.171,214.005 153.338,232.338 154.5,250.5 Z"/></g>
<g><path style="opacity:0.095" fill="#bcb9b9" d="M 374.5,261.5 C 381.833,261.5 389.167,261.5 396.5,261.5C 397.738,261.81 397.738,262.31 396.5,263C 389.167,263.667 381.833,263.667 374.5,263C 373.262,262.31 373.262,261.81 374.5,261.5 Z"/></g>
<g><path style="opacity:0.09" fill="#bcb7b6" d="M 533.5,260.5 C 531.438,261.776 529.104,262.61 526.5,263C 519.5,263.167 512.5,263.333 505.5,263.5C 498.133,263.497 491.133,262.83 484.5,261.5C 500.854,261.74 517.188,261.406 533.5,260.5 Z"/></g>
<g><path style="opacity:0.106" fill="#b6b0b0" d="M 617.5,260.5 C 615.438,261.776 613.104,262.61 610.5,263C 603.5,263.167 596.5,263.333 589.5,263.5C 582.133,263.497 575.133,262.83 568.5,261.5C 584.854,261.74 601.188,261.406 617.5,260.5 Z"/></g>
<g><path style="opacity:0.125" fill="#bbb6b6" d="M 708.5,263.5 C 701.167,263.5 693.833,263.5 686.5,263.5C 686.611,262.883 686.944,262.383 687.5,262C 693.833,261.333 700.167,261.333 706.5,262C 707.416,262.278 708.082,262.778 708.5,263.5 Z"/></g>
<g><path style="opacity:0.082" fill="#bab5b6" d="M 750.5,261.5 C 758.684,261.174 766.684,261.508 774.5,262.5C 770.681,263.166 766.681,263.499 762.5,263.5C 758.107,263.491 754.107,262.824 750.5,261.5 Z"/></g>
<g><path style="opacity:0.106" fill="#c0bcbc" d="M 837.5,261.5 C 845.167,261.5 852.833,261.5 860.5,261.5C 860.389,262.117 860.056,262.617 859.5,263C 852.5,263.667 845.5,263.667 838.5,263C 837.944,262.617 837.611,262.117 837.5,261.5 Z"/></g>
<g><path style="opacity:1" fill="#d0ab29" d="M 152.5,264.5 C 155.886,266.84 158.22,269.507 159.5,272.5C 159.167,272.5 158.833,272.5 158.5,272.5C 156.091,270.098 154.091,267.431 152.5,264.5 Z"/></g>
<g><path style="opacity:1" fill="#e21b1f" d="M 247.5,236.5 C 248.043,236.56 248.376,236.893 248.5,237.5C 247.5,237.833 246.5,238.167 245.5,238.5C 242.846,237.732 240.179,237.566 237.5,238C 238.623,239.044 239.956,239.71 241.5,240C 238.183,240.498 234.85,240.665 231.5,240.5C 230.178,240.33 229.011,240.663 228,241.5C 224.348,255.484 215.348,263.484 201,265.5C 197.654,265.039 194.488,264.039 191.5,262.5C 187.981,265.854 184.314,269.02 180.5,272C 174.912,273.289 169.245,273.789 163.5,273.5C 164.263,272.732 165.263,272.232 166.5,272C 162.641,271.001 160.641,268.834 160.5,265.5C 174.095,270.919 183.595,266.919 189,253.5C 189.497,251.19 189.663,248.857 189.5,246.5C 190.5,246.5 191.5,246.5 192.5,246.5C 191.931,250.329 192.598,253.663 194.5,256.5C 199.811,257.704 205.144,257.704 210.5,256.5C 216.985,254.666 220.818,250.332 222,243.5C 222.24,236.57 222.407,229.736 222.5,223C 220.729,222.465 220.396,221.631 221.5,220.5C 222.719,221.263 223.719,222.263 224.5,223.5C 225.301,227.745 226.968,231.578 229.5,235C 235.423,236.304 241.423,236.804 247.5,236.5 Z"/></g>
<g><path style="opacity:1" fill="#a23872" d="M 122.5,265.5 C 123.5,265.5 124.5,265.5 125.5,265.5C 130.548,265.842 135.548,266.508 140.5,267.5C 140.5,268.833 140.5,270.167 140.5,271.5C 140.5,272.167 140.5,272.833 140.5,273.5C 139.5,273.5 138.5,273.5 137.5,273.5C 138.666,271.834 138.666,270.167 137.5,268.5C 134.916,267.607 132.249,267.274 129.5,267.5C 127.167,266.833 124.833,266.167 122.5,265.5 Z"/></g>
<g><path style="opacity:1" fill="#c9400b" d="M 194.5,256.5 C 192.598,253.663 191.931,250.329 192.5,246.5C 191.5,246.5 190.5,246.5 189.5,246.5C 189.663,248.857 189.497,251.19 189,253.5C 183.595,266.919 174.095,270.919 160.5,265.5C 160.641,268.834 162.641,271.001 166.5,272C 165.263,272.232 164.263,272.732 163.5,273.5C 162.167,273.5 160.833,273.5 159.5,273.5C 159.5,273.167 159.5,272.833 159.5,272.5C 158.22,269.507 155.886,266.84 152.5,264.5C 151.213,261.594 150.213,258.594 149.5,255.5C 151.863,258.382 153.863,261.549 155.5,265C 156.635,265.749 157.635,265.583 158.5,264.5C 157.691,262.929 157.357,261.262 157.5,259.5C 161.962,265.491 167.962,267.657 175.5,266C 180.528,264.109 183.861,260.609 185.5,255.5C 187.109,252.851 187.943,249.851 188,246.5C 189.789,244.771 191.956,244.104 194.5,244.5C 194.5,248.5 194.5,252.5 194.5,256.5 Z"/></g>
<g><path style="opacity:1" fill="#a6c538" d="M 145.5,249.5 C 146.203,251.629 147.203,253.629 148.5,255.5C 148.833,255.5 149.167,255.5 149.5,255.5C 150.213,258.594 151.213,261.594 152.5,264.5C 151.178,264.67 150.011,264.337 149,263.5C 148.64,261.392 147.973,259.392 147,257.5C 146.501,262.489 146.334,267.489 146.5,272.5C 150.5,272.5 154.5,272.5 158.5,272.5C 158.833,272.5 159.167,272.5 159.5,272.5C 159.5,272.833 159.5,273.167 159.5,273.5C 154.833,273.5 150.167,273.5 145.5,273.5C 145.5,265.5 145.5,257.5 145.5,249.5 Z"/></g>
<g><path style="opacity:1" fill="#a7db11" d="M 152.5,264.5 C 154.091,267.431 156.091,270.098 158.5,272.5C 154.5,272.5 150.5,272.5 146.5,272.5C 146.334,267.489 146.501,262.489 147,257.5C 147.973,259.392 148.64,261.392 149,263.5C 150.011,264.337 151.178,264.67 152.5,264.5 Z"/></g>
<g><path style="opacity:1" fill="#f40623" d="M 118.5,271.5 C 118.167,271.5 117.833,271.5 117.5,271.5C 116.766,270.292 116.433,268.959 116.5,267.5C 123.158,268.227 129.825,268.893 136.5,269.5C 136.5,270.5 136.5,271.5 136.5,272.5C 130.5,272.167 124.5,271.833 118.5,271.5 Z"/></g>
</svg>
