<?xml version="1.0" encoding="UTF-8"?>
<!DOCTYPE svg PUBLIC "-//W3C//DTD SVG 1.1//EN" "http://www.w3.org/Graphics/SVG/1.1/DTD/svg11.dtd">
<svg xmlns="http://www.w3.org/2000/svg" version="1.1" width="1152px" height="216px" style="shape-rendering:geometricPrecision; text-rendering:geometricPrecision; image-rendering:optimizeQuality; fill-rule:evenodd; clip-rule:evenodd" xmlns:xlink="http://www.w3.org/1999/xlink">
<g><path style="opacity:0.004" fill="#000000" d="M 609.5,5.5 C 610.833,6.16667 610.833,6.16667 609.5,5.5 Z"/></g>
<g><path style="opacity:0.004" fill="#000000" d="M 306.5,9.5 C 307.833,10.1667 307.833,10.1667 306.5,9.5 Z"/></g>
<g><path style="opacity:0.004" fill="#000000" d="M 514.5,11.5 C 515.833,12.1667 515.833,12.1667 514.5,11.5 Z"/></g>
<g><path style="opacity:0.984" fill="#fefefe" d="M 13.5,12.5 C 29.1113,12.534 44.778,12.8673 60.5,13.5C 60.5,38.8333 60.5,64.1667 60.5,89.5C 83.4555,90.5831 106.455,90.5831 129.5,89.5C 129.333,63.8312 129.5,38.1645 130,12.5C 145.422,13.491 160.922,13.8244 176.5,13.5C 176.5,78.1667 176.5,142.833 176.5,207.5C 160.833,207.5 145.167,207.5 129.5,207.5C 129.5,180.5 129.5,153.5 129.5,126.5C 106.5,126.5 83.5,126.5 60.5,126.5C 60.5,153.5 60.5,180.5 60.5,207.5C 44.4965,207.667 28.4965,207.5 12.5,207C 12.1736,142.242 12.5069,77.4088 13.5,12.5 Z"/></g>
<g><path style="opacity:0.983" fill="#fefefe" d="M 204.5,12.5 C 249.429,13.3281 294.429,13.8281 339.5,14C 340.335,25.4249 340.668,37.0916 340.5,49C 311.169,49.5 281.835,49.6666 252.5,49.5C 253.678,62.8093 253.678,75.8093 252.5,88.5C 268.817,89.5532 285.15,90.2199 301.5,90.5C 309.859,90.3767 318.026,90.0434 326,89.5C 326.667,101.5 326.667,113.5 326,125.5C 301.649,125.472 277.149,125.472 252.5,125.5C 253.351,140.513 253.351,155.513 252.5,170.5C 281.835,170.333 311.169,170.5 340.5,171C 340.5,183 340.5,195 340.5,207C 295.168,207.5 249.835,207.667 204.5,207.5C 204.5,142.5 204.5,77.5 204.5,12.5 Z"/></g>
<g><path style="opacity:0.992" fill="#fefefe" d="M 358.5,12.5 C 384.291,13.83 410.125,13.83 436,12.5C 454.361,13.3059 471.527,18.1392 487.5,27C 499.955,37.2504 506.289,50.5837 506.5,67C 506.128,79.5296 502.128,90.1963 494.5,99C 490.676,102.079 486.676,104.912 482.5,107.5C 487.785,111.15 493.118,114.817 498.5,118.5C 506.355,127.574 510.355,138.241 510.5,150.5C 509.923,180.924 494.59,199.091 464.5,205C 459.167,205.667 453.833,206.333 448.5,207C 418.502,207.5 388.502,207.667 358.5,207.5C 358.5,142.5 358.5,77.5 358.5,12.5 Z M 406.5,49.5 C 414.84,49.3336 423.173,49.5003 431.5,50C 439.354,50.3667 446.354,52.3667 452.5,56C 459.737,65.7623 460.237,75.9289 454,86.5C 449.752,89.6241 445.085,91.9575 440,93.5C 428.941,93.415 417.774,93.415 406.5,93.5C 406.5,78.8333 406.5,64.1667 406.5,49.5 Z M 406.5,125.5 C 417.478,125.748 428.311,125.748 439,125.5C 454.773,125.273 462.607,133.107 462.5,149C 462.525,158.95 457.858,165.617 448.5,169C 434.541,170.366 420.541,170.866 406.5,170.5C 406.5,155.5 406.5,140.5 406.5,125.5 Z"/></g>
<g><path style="opacity:0.989" fill="#fefefe" d="M 533.5,12.5 C 559.333,13.8289 585.167,13.8289 611,12.5C 623.717,13.8033 636.217,16.3033 648.5,20C 677.656,34.0656 687.156,56.5656 677,87.5C 672.544,96.6574 665.71,103.491 656.5,108C 666.985,112.983 674.819,119.483 680,127.5C 681.759,131.36 683.259,135.36 684.5,139.5C 684.495,146.874 684.495,154.207 684.5,161.5C 680.382,181.617 668.715,195.284 649.5,202.5C 646.711,202.122 644.211,203.122 642,205.5C 641.586,205.043 641.086,204.709 640.5,204.5C 634.545,205.514 628.545,206.347 622.5,207C 592.835,207.5 563.169,207.667 533.5,207.5C 533.5,142.5 533.5,77.5 533.5,12.5 Z M 581.5,49.5 C 595.355,48.7664 609.021,49.933 622.5,53C 629.393,57.6129 633.059,64.1129 633.5,72.5C 633.617,81.9571 628.95,88.4571 619.5,92C 618,92.5 616.5,93 615,93.5C 603.941,93.415 592.774,93.415 581.5,93.5C 581.5,78.8333 581.5,64.1667 581.5,49.5 Z M 581.5,125.5 C 594.837,125.333 608.171,125.5 621.5,126C 628.833,127.847 633.666,132.347 636,139.5C 640.019,152.772 635.852,162.606 623.5,169C 609.203,170.536 594.87,170.869 580.5,170C 581.491,155.245 581.824,140.412 581.5,125.5 Z"/></g>
<g><path style="opacity:0.993" fill="#fefefe" d="M 711.5,12.5 C 727.145,13.4019 742.812,13.7352 758.5,13.5C 758.5,78.1667 758.5,142.833 758.5,207.5C 742.833,207.5 727.167,207.5 711.5,207.5C 711.5,142.5 711.5,77.5 711.5,12.5 Z"/></g>
<g><path style="opacity:0.99" fill="#fefefe" d="M 847.5,12.5 C 862.896,13.5794 878.229,13.7461 893.5,13C 893.167,13.3333 892.833,13.6667 892.5,14C 916.762,77.9017 940.762,142.235 964.5,207C 947.49,207.833 930.49,207.666 913.5,206.5C 908.825,195.141 905.158,183.475 902.5,171.5C 881.167,171.5 859.833,171.5 838.5,171.5C 834.611,183.346 830.944,195.179 827.5,207C 810.49,207.833 793.49,207.666 776.5,206.5C 800.457,142.331 824.123,77.6641 847.5,12.5 Z M 869.5,70.5 C 871.648,70.3894 871.981,71.056 870.5,72.5C 877.609,92.8772 884.275,113.377 890.5,134C 877.487,134.833 864.487,134.666 851.5,133.5C 851.291,132.914 850.957,132.414 850.5,132C 853.956,121.12 857.622,110.62 861.5,100.5C 861.291,99.914 860.957,99.414 860.5,99C 862.26,95.2251 863.927,91.3917 865.5,87.5C 865.291,86.914 864.957,86.414 864.5,86C 867.454,81.2562 869.121,76.0895 869.5,70.5 Z"/></g>
<g><path style="opacity:0.989" fill="#fefefe" d="M 979.5,12.5 C 995,13.8259 1010.5,13.8259 1026,12.5C 1026.67,13.1667 1027.33,13.8333 1028,14.5C 1050.25,52.6703 1072.25,91.0036 1094,129.5C 1094.17,90.4957 1094.67,51.4957 1095.5,12.5C 1110.91,13.7177 1126.41,13.7177 1142,12.5C 1142.5,77.4991 1142.67,142.499 1142.5,207.5C 1126.83,207.667 1111.16,207.5 1095.5,207C 1072.88,168.252 1050.38,129.419 1028,90.5C 1027.5,129.499 1027.33,168.499 1027.5,207.5C 1011.5,207.5 995.5,207.5 979.5,207.5C 979.257,142.513 979.257,77.5129 979.5,12.5 Z"/></g>
<g><path style="opacity:0.008" fill="#000000" d="M 818.5,23.5 C 819.833,24.1667 819.833,24.1667 818.5,23.5 Z"/></g>
<g><path style="opacity:0.008" fill="#000000" d="M 974.5,23.5 C 975.833,24.1667 975.833,24.1667 974.5,23.5 Z"/></g>
<g><path style="opacity:0.008" fill="#000000" d="M 83.5,24.5 C 84.8333,25.1667 84.8333,25.1667 83.5,24.5 Z"/></g>
<g><path style="opacity:0.008" fill="#000000" d="M 678.5,25.5 C 679.833,26.1667 679.833,26.1667 678.5,25.5 Z"/></g>
<g><path style="opacity:0.004" fill="#000000" d="M 933.5,36.5 C 934.833,37.1667 934.833,37.1667 933.5,36.5 Z"/></g>
<g><path style="opacity:0.008" fill="#000000" d="M 188.5,46.5 C 189.833,47.1667 189.833,47.1667 188.5,46.5 Z"/></g>
<g><path style="opacity:0.008" fill="#000000" d="M 704.5,51.5 C 705.833,52.1667 705.833,52.1667 704.5,51.5 Z"/></g>
<g><path style="opacity:0.004" fill="#000000" d="M 795.5,54.5 C 796.833,55.1667 796.833,55.1667 795.5,54.5 Z"/></g>
<g><path style="opacity:0.004" fill="#fefffe" d="M 1056.5,56.5 C 1057.83,57.1667 1057.83,57.1667 1056.5,56.5 Z"/></g>
<g><path style="opacity:0.004" fill="#000000" d="M 922.5,70.5 C 923.833,71.1667 923.833,71.1667 922.5,70.5 Z"/></g>
<g><path style="opacity:0.008" fill="#000000" d="M 303.5,75.5 C 304.833,76.1667 304.833,76.1667 303.5,75.5 Z"/></g>
<g><path style="opacity:0.004" fill="#000000" d="M 964.5,75.5 C 965.833,76.1667 965.833,76.1667 964.5,75.5 Z"/></g>
<g><path style="opacity:0.004" fill="#000000" d="M 960.5,83.5 C 961.833,84.1667 961.833,84.1667 960.5,83.5 Z"/></g>
<g><path style="opacity:0.008" fill="#fefffe" d="M 505.5,84.5 C 506.833,85.1667 506.833,85.1667 505.5,84.5 Z"/></g>
<g><path style="opacity:0.004" fill="#000000" d="M 782.5,89.5 C 783.833,90.1667 783.833,90.1667 782.5,89.5 Z"/></g>
<g><path style="opacity:0.008" fill="#000000" d="M 970.5,98.5 C 971.833,99.1667 971.833,99.1667 970.5,98.5 Z"/></g>
<g><path style="opacity:0.004" fill="#000000" d="M 342.5,105.5 C 343.833,106.167 343.833,106.167 342.5,105.5 Z"/></g>
<g><path style="opacity:0.004" fill="#000000" d="M 330.5,110.5 C 331.833,111.167 331.833,111.167 330.5,110.5 Z"/></g>
<g><path style="opacity:0.008" fill="#000000" d="M 89.5,135.5 C 90.8333,136.167 90.8333,136.167 89.5,135.5 Z"/></g>
<g><path style="opacity:0.008" fill="#000000" d="M 97.5,161.5 C 98.8333,162.167 98.8333,162.167 97.5,161.5 Z"/></g>
<g><path style="opacity:0.004" fill="#000000" d="M 75.5,172.5 C 76.8333,173.167 76.8333,173.167 75.5,172.5 Z"/></g>
<g><path style="opacity:0.004" fill="#000000" d="M 849.5,190.5 C 850.833,191.167 850.833,191.167 849.5,190.5 Z"/></g>
<g><path style="opacity:0.004" fill="#000000" d="M 194.5,198.5 C 195.833,199.167 195.833,199.167 194.5,198.5 Z"/></g>
<g><path style="opacity:0.004" fill="#000000" d="M 763.5,199.5 C 764.833,200.167 764.833,200.167 763.5,199.5 Z"/></g>
<g><path style="opacity:0.004" fill="#000000" d="M 861.5,199.5 C 862.833,200.167 862.833,200.167 861.5,199.5 Z"/></g>
<g><path style="opacity:0.004" fill="#000000" d="M 520.5,202.5 C 521.833,203.167 521.833,203.167 520.5,202.5 Z"/></g>
<g><path style="opacity:0.008" fill="#000000" d="M 1069.5,209.5 C 1070.83,210.167 1070.83,210.167 1069.5,209.5 Z"/></g>
<g><path style="opacity:0.008" fill="#000000" d="M 143.5,210.5 C 144.833,211.167 144.833,211.167 143.5,210.5 Z"/></g>
</svg>
